<?xml version="1.0" encoding="UTF-8" standalone="no"?>
<svg
   xmlns:dc="http://purl.org/dc/elements/1.1/"
   xmlns:cc="http://creativecommons.org/ns#"
   xmlns:rdf="http://www.w3.org/1999/02/22-rdf-syntax-ns#"
   xmlns:svg="http://www.w3.org/2000/svg"
   xmlns="http://www.w3.org/2000/svg"
   xmlns:xlink="http://www.w3.org/1999/xlink"
   id="svg1465"
   version="1.1"
   viewBox="0 0 125.20965 80.54763"
   height="80.54763mm"
   width="125.20965mm">
  <defs
     id="defs1459" />
  <metadata
     id="metadata1462">
    <rdf:RDF>
      <cc:Work
         rdf:about="">
        <dc:format>image/svg+xml</dc:format>
        <dc:type
           rdf:resource="http://purl.org/dc/dcmitype/StillImage" />
        <dc:title></dc:title>
      </cc:Work>
    </rdf:RDF>
  </metadata>
  <g
     transform="translate(-1.08361e-6,-216.45236)"
     id="layer1">
    <g
       id="g1259"
       transform="translate(-295.71661,196.33928)">
      <g
         style="fill:#3f3529;fill-opacity:1"
         id="g1243"
         transform="matrix(0.35277777,0,0,-0.35277777,418.2255,37.434473)">
        <path
           d="M 0,0 H -5.401 C -5.528,0 -5.7,-0.034 -5.934,-0.094 l -0.579,-0.146 -0.613,0.079 c -6.927,0.857 -12.672,5.751 -14.633,12.458 l -0.13,0.437 v 7.055 c 0,1.124 -0.923,2.05 -2.057,2.05 h -52.911 l -0.732,0.408 c -25.751,14.46 -58.503,22.464 -92.302,22.592 -33.799,-0.128 -66.551,-8.132 -92.302,-22.592 l -0.732,-0.408 h -52.911 c -1.134,0 -2.057,-0.926 -2.057,-2.05 v -7.055 l -0.13,-0.437 c -1.961,-6.707 -7.706,-11.601 -14.634,-12.458 l -0.612,-0.079 -0.58,0.146 c -0.233,0.06 -0.405,0.094 -0.533,0.094 h -5.4 c -1.126,0 -2.05,-0.925 -2.05,-2.061 v -61.299 -3.461 -61.299 c 0,-1.136 0.924,-2.061 2.05,-2.061 h 5.4 c 0.128,0 0.3,0.034 0.533,0.094 l 0.58,0.146 0.612,-0.078 c 6.928,-0.858 12.673,-5.752 14.634,-12.459 l 0.13,-0.436 v -7.056 c 0,-1.124 0.923,-2.049 2.057,-2.049 h 52.911 l 0.732,-0.408 c 25.751,-14.46 58.503,-22.465 92.302,-22.592 33.799,0.127 66.551,8.132 92.302,22.592 l 0.732,0.408 h 52.911 c 1.134,0 2.057,0.925 2.057,2.049 v 7.056 l 0.13,0.436 c 1.961,6.707 7.706,11.601 14.633,12.459 l 0.613,0.078 0.579,-0.146 c 0.234,-0.06 0.406,-0.094 0.533,-0.094 H 0 c 1.126,0 2.049,0.925 2.049,2.061 v 61.299 3.461 61.299 C 2.049,-0.925 1.126,0 0,0"
           style="fill:#3f3529;fill-opacity:1;fill-rule:nonzero;stroke:none"
           id="path1241" />
      </g>
      <g
         style="fill:#3f3529;fill-opacity:1"
         id="g1247"
         transform="matrix(0.35277777,0,0,-0.35277777,420.4613,61.072347)">
        <path
           d="m 0,0 v -62.388 c 0,-1.524 -1.232,-2.753 -2.745,-2.753 h -5.512 c -0.183,0 -0.409,0.037 -0.701,0.106 l -0.479,0.128 -0.494,-0.066 c -6.817,-0.85 -12.463,-5.66 -14.393,-12.244 l -0.077,-0.271 -0.031,-7.202 c 0,-1.517 -1.231,-2.744 -2.754,-2.744 h -53.835 l -0.601,-0.342 c -26.372,-14.804 -59.916,-23.003 -94.522,-23.133 -34.607,0.13 -68.15,8.329 -94.523,23.133 l -0.6,0.342 h -53.836 c -1.522,0 -2.754,1.227 -2.754,2.744 l -0.031,7.202 -0.077,0.271 c -1.929,6.584 -7.576,11.394 -14.393,12.244 l -0.494,0.066 -0.479,-0.128 c -0.291,-0.069 -0.517,-0.106 -0.701,-0.106 h -5.512 c -1.513,0 -2.745,1.229 -2.745,2.753 V 0 3.886 66.274 c 0,1.524 1.232,2.752 2.745,2.752 h 5.512 c 0.184,0 0.41,-0.037 0.701,-0.106 l 0.479,-0.128 0.494,0.067 c 6.817,0.85 12.464,5.66 14.393,12.244 l 0.077,0.271 0.031,7.201 c 0,1.517 1.232,2.745 2.754,2.745 h 53.836 l 0.6,0.342 c 26.373,14.804 59.916,23.003 94.523,23.133 34.606,-0.13 68.15,-8.329 94.522,-23.133 l 0.601,-0.342 h 53.835 c 1.523,0 2.754,-1.228 2.754,-2.745 l 0.031,-7.201 0.077,-0.271 c 1.93,-6.584 7.576,-11.394 14.393,-12.244 l 0.494,-0.067 0.479,0.128 c 0.292,0.069 0.518,0.106 0.701,0.106 h 5.512 C -1.232,69.026 0,67.798 0,66.274 V 3.886 Z m -2.745,70.338 h -5.512 c -0.298,0 -0.628,-0.049 -1.025,-0.152 l -0.238,-0.061 -0.254,0.032 c -6.289,0.79 -11.511,5.232 -13.295,11.318 l -0.048,0.186 v 6.914 c 0,2.238 -1.824,4.062 -4.069,4.062 H -80.68 l -0.299,0.171 c -26.565,14.911 -60.334,23.167 -95.165,23.297 -34.832,-0.13 -68.6,-8.386 -95.166,-23.297 l -0.299,-0.171 h -53.494 c -2.245,0 -4.069,-1.824 -4.069,-4.062 v -6.914 l -0.048,-0.186 c -1.784,-6.086 -7.005,-10.528 -13.294,-11.318 l -0.254,-0.032 -0.238,0.061 c -0.398,0.103 -0.728,0.152 -1.026,0.152 h -5.512 c -2.235,0 -4.063,-1.818 -4.063,-4.064 V 4.265 -0.379 -62.388 c 0,-2.246 1.828,-4.064 4.063,-4.064 h 5.512 c 0.298,0 0.628,0.049 1.026,0.152 l 0.238,0.061 0.254,-0.032 c 6.289,-0.79 11.51,-5.232 13.294,-11.318 l 0.048,-0.187 v -6.914 c 0,-2.237 1.824,-4.061 4.069,-4.061 h 53.494 l 0.299,-0.171 c 26.566,-14.911 60.334,-23.167 95.166,-23.297 34.831,0.13 68.6,8.386 95.165,23.297 l 0.299,0.171 h 53.494 c 2.245,0 4.069,1.824 4.069,4.061 v 6.914 l 0.048,0.187 c 1.784,6.086 7.006,10.528 13.295,11.318 l 0.254,0.032 0.238,-0.061 c 0.397,-0.103 0.727,-0.152 1.025,-0.152 h 5.512 c 2.236,0 4.063,1.818 4.063,4.064 v 62.009 4.644 62.009 c 0,2.246 -1.827,4.064 -4.063,4.064"
           style="fill:#3f3529;fill-opacity:1;fill-rule:nonzero;stroke:none"
           id="path1245" />
      </g>
      <g
         style="fill:#7fcfaa;fill-opacity:1"
         id="g1251"
         transform="matrix(0.35277777,0,0,-0.35277777,416.48616,60.386917)">
        <path
           d="m 0,0 v -57.933 l -1.046,0.265 -1.938,-0.243 c -9.727,-1.221 -17.789,-8.084 -20.542,-17.487 l -0.359,-1.243 -0.055,-3.224 h -49.751 l -2.342,-1.318 c -24.713,-13.87 -56.235,-21.555 -88.843,-21.682 -32.609,0.127 -64.131,7.812 -88.844,21.682 l -2.341,1.318 h -49.751 l -0.055,3.224 -0.36,1.243 c -2.753,9.403 -10.814,16.266 -20.542,17.487 l -1.937,0.243 -1.046,-0.265 V 0 57.933 l 1.046,-0.265 1.937,0.243 c 9.728,1.221 17.789,8.084 20.542,17.487 l 0.36,1.243 0.055,3.224 h 49.751 l 2.341,1.318 c 24.713,13.87 56.235,21.555 88.844,21.682 32.608,-0.127 64.13,-7.812 88.843,-21.682 l 2.342,-1.318 h 49.751 l 0.055,-3.224 0.359,-1.243 c 2.753,-9.403 10.815,-16.266 20.542,-17.487 L -1.046,57.668 0,57.933 Z m -1.207,60.28 -1.456,0.179 c -8.71,1.088 -15.932,7.237 -18.395,15.661 l -0.31,1.056 v 5.254 h -51.651 l -1.755,0.993 c -25.091,14.083 -57.059,21.882 -90.102,22.009 -33.043,-0.127 -65.012,-7.926 -90.103,-22.009 l -1.755,-0.993 h -51.651 v -5.254 l -0.309,-1.056 c -2.463,-8.424 -9.685,-14.573 -18.395,-15.661 l -1.457,-0.179 -1.05,0.268 -2.722,0.039 V 0.586 -0.586 -60.587 l 2.722,0.039 1.05,0.268 1.457,-0.179 c 8.71,-1.088 15.932,-7.237 18.395,-15.661 l 0.309,-1.056 v -5.254 h 51.651 l 1.755,-0.993 c 25.091,-14.083 57.06,-21.882 90.103,-22.009 33.043,0.127 65.011,7.926 90.102,22.009 l 1.755,0.993 h 51.651 v 5.254 l 0.31,1.056 c 2.463,8.424 9.685,14.573 18.395,15.661 l 1.456,0.179 1.051,-0.268 2.721,-0.039 v 60.001 1.172 60.001 l -2.721,-0.039 z"
           style="fill:#7fcfaa;fill-opacity:1;fill-rule:nonzero;stroke:none"
           id="path1249" />
      </g>
      <g
         transform="matrix(0.35277777,0,0,-0.35277777,358.32144,37.87615)"
         id="g1255">
        <path
           id="path1253"
           style="fill:none;stroke:#7fcfaa;stroke-width:1;stroke-linecap:butt;stroke-linejoin:miter;stroke-miterlimit:10;stroke-dasharray:none;stroke-opacity:1"
           d="M 0,0 -156.893,-63.81 0,-127.62 156.893,-63.81 Z" />
      </g>
      <path
         id="path1257"
         style="fill:#7fcfaa;fill-opacity:1;fill-rule:nonzero;stroke:none;stroke-width:0.35277775"
         d="m 358.32143,39.215827 -52.05447,21.171256 52.05447,21.17089 52.05448,-21.17089 z" />
    </g>
    <g
       style="fill:#d8424c;fill-opacity:1"
       id="g1263"
       transform="matrix(0.35277777,0,0,-0.35277777,91.706139,237.4456)">
      <path
         d="M 0,0 -2.462,3.998 -7.025,2.892 -3.984,6.469 -6.446,10.467 -2.104,8.68 0.937,12.257 0.579,7.575 4.921,5.788 0.358,4.682 Z"
         style="fill:#d8424c;fill-opacity:1;fill-rule:nonzero;stroke:none"
         id="path1261" />
    </g>
    <g
       style="fill:#d8424c;fill-opacity:1"
       id="g1267"
       transform="matrix(0.35277777,0,0,-0.35277777,86.171369,283.71883)">
      <path
         d="m 0,0 -4.568,1.086 -2.444,-4.009 -0.379,4.68 -4.568,1.086 4.334,1.806 -0.379,4.68 3.057,-3.563 4.334,1.806 -2.444,-4.008 z"
         style="fill:#d8424c;fill-opacity:1;fill-rule:nonzero;stroke:none"
         id="path1265" />
    </g>
    <g
       style="fill:#d8424c;fill-opacity:1"
       id="g1271"
       transform="matrix(0.35277777,0,0,-0.35277777,39.038349,283.71883)">
      <path
         d="M 0,0 4.568,1.086 7.012,-2.923 7.391,1.757 11.959,2.843 7.625,4.649 8.004,9.329 4.947,5.766 0.613,7.572 3.057,3.564 Z"
         style="fill:#d8424c;fill-opacity:1;fill-rule:nonzero;stroke:none"
         id="path1269" />
    </g>
    <g
       style="fill:#d8424c;fill-opacity:1"
       id="g1275"
       transform="matrix(0.35277777,0,0,-0.35277777,33.503549,237.4456)">
      <path
         d="M 0,0 2.462,3.998 7.025,2.892 3.984,6.469 6.446,10.467 2.104,8.68 -0.937,12.257 -0.579,7.575 -4.921,5.788 -0.358,4.682 Z"
         style="fill:#d8424c;fill-opacity:1;fill-rule:nonzero;stroke:none"
         id="path1273" />
    </g>
    <g
       style="fill:#3f3529;fill-opacity:1"
       id="g1353"
       transform="matrix(0.35277777,0,0,-0.37448204,-149.06182,331.34174)">
      <g
         style="fill:#3f3529;fill-opacity:1"
         id="g1313"
         transform="translate(0,1.5)">
        <g
           style="fill:#3f3529;fill-opacity:1"
           id="g1279"
           transform="translate(604.9276,234.1822)">
          <path
             d="m 0,0 c 0,-2.721 -2.206,-4.928 -4.928,-4.928 -2.721,0 -4.927,2.207 -4.927,4.928 0,2.721 2.206,4.928 4.927,4.928 C -2.206,4.928 0,2.721 0,0"
             style="fill:#3f3529;fill-opacity:1;fill-rule:nonzero;stroke:none"
             id="path1277" />
        </g>
        <g
           style="fill:#3f3529;fill-opacity:1"
           id="g1283"
           transform="translate(616.6306,232.5654)">
          <path
             d="m 0,0 c 0,-1.828 -1.482,-3.311 -3.311,-3.311 -1.828,0 -3.31,1.483 -3.31,3.311 0,1.828 1.482,3.311 3.31,3.311 C -1.482,3.311 0,1.828 0,0"
             style="fill:#3f3529;fill-opacity:1;fill-rule:nonzero;stroke:none"
             id="path1281" />
        </g>
        <g
           style="fill:#3f3529;fill-opacity:1"
           id="g1287"
           transform="translate(626.6095,231.8573)">
          <path
             d="m 0,0 c 0,-1.437 -1.165,-2.603 -2.603,-2.603 -1.437,0 -2.602,1.166 -2.602,2.603 0,1.437 1.165,2.603 2.602,2.603 C -1.165,2.603 0,1.437 0,0"
             style="fill:#3f3529;fill-opacity:1;fill-rule:nonzero;stroke:none"
             id="path1285" />
        </g>
        <g
           style="fill:#3f3529;fill-opacity:1"
           id="g1291"
           transform="translate(634.1324,231.0761)">
          <path
             d="m 0,0 c 0,-1.006 -0.816,-1.821 -1.821,-1.821 -1.006,0 -1.822,0.815 -1.822,1.821 0,1.006 0.816,1.821 1.822,1.821 C -0.816,1.821 0,1.006 0,0"
             style="fill:#3f3529;fill-opacity:1;fill-rule:nonzero;stroke:none"
             id="path1289" />
        </g>
        <g
           style="fill:#3f3529;fill-opacity:1"
           id="g1295"
           transform="translate(641.1324,230.5972)">
          <path
             d="m 0,0 c 0,-0.741 -0.601,-1.343 -1.343,-1.343 -0.741,0 -1.342,0.602 -1.342,1.343 0,0.741 0.601,1.343 1.342,1.343 C -0.601,1.343 0,0.741 0,0"
             style="fill:#3f3529;fill-opacity:1;fill-rule:nonzero;stroke:none"
             id="path1293" />
        </g>
        <g
           style="fill:#3f3529;fill-opacity:1"
           id="g1299"
           transform="translate(583.3694,232.5654)">
          <path
             d="m 0,0 c 0,-1.828 1.482,-3.311 3.311,-3.311 1.828,0 3.31,1.483 3.31,3.311 0,1.828 -1.482,3.311 -3.31,3.311 C 1.482,3.311 0,1.828 0,0"
             style="fill:#3f3529;fill-opacity:1;fill-rule:nonzero;stroke:none"
             id="path1297" />
        </g>
        <g
           style="fill:#3f3529;fill-opacity:1"
           id="g1303"
           transform="translate(573.3904,231.8573)">
          <path
             d="M 0,0 C 0,-1.437 1.165,-2.603 2.603,-2.603 4.04,-2.603 5.205,-1.437 5.205,0 5.205,1.437 4.04,2.603 2.603,2.603 1.165,2.603 0,1.437 0,0"
             style="fill:#3f3529;fill-opacity:1;fill-rule:nonzero;stroke:none"
             id="path1301" />
        </g>
        <g
           style="fill:#3f3529;fill-opacity:1"
           id="g1307"
           transform="translate(565.8676,231.0761)">
          <path
             d="m 0,0 c 0,-1.006 0.815,-1.821 1.821,-1.821 1.006,0 1.822,0.815 1.822,1.821 0,1.006 -0.816,1.821 -1.822,1.821 C 0.815,1.821 0,1.006 0,0"
             style="fill:#3f3529;fill-opacity:1;fill-rule:nonzero;stroke:none"
             id="path1305" />
        </g>
        <g
           style="fill:#3f3529;fill-opacity:1"
           id="g1311"
           transform="translate(558.8676,230.5972)">
          <path
             d="m 0,0 c 0,-0.741 0.601,-1.343 1.343,-1.343 0.741,0 1.342,0.602 1.342,1.343 0,0.741 -0.601,1.343 -1.342,1.343 C 0.601,1.343 0,0.741 0,0"
             style="fill:#3f3529;fill-opacity:1;fill-rule:nonzero;stroke:none"
             id="path1309" />
        </g>
      </g>
      <g
         style="fill:#3f3529;fill-opacity:1"
         id="g1351"
         transform="translate(0,-3)">
        <g
           style="fill:#3f3529;fill-opacity:1"
           id="g1317"
           transform="translate(595.0724,165.8178)">
          <path
             d="M 0,0 C 0,2.721 2.206,4.928 4.928,4.928 7.649,4.928 9.855,2.721 9.855,0 9.855,-2.721 7.649,-4.928 4.928,-4.928 2.206,-4.928 0,-2.721 0,0"
             style="fill:#3f3529;fill-opacity:1;fill-rule:nonzero;stroke:none"
             id="path1315" />
        </g>
        <g
           style="fill:#3f3529;fill-opacity:1"
           id="g1321"
           transform="translate(583.3694,167.4346)">
          <path
             d="m 0,0 c 0,1.828 1.482,3.311 3.311,3.311 1.828,0 3.31,-1.483 3.31,-3.311 0,-1.828 -1.482,-3.311 -3.31,-3.311 C 1.482,-3.311 0,-1.828 0,0"
             style="fill:#3f3529;fill-opacity:1;fill-rule:nonzero;stroke:none"
             id="path1319" />
        </g>
        <g
           style="fill:#3f3529;fill-opacity:1"
           id="g1325"
           transform="translate(573.3904,168.1427)">
          <path
             d="M 0,0 C 0,1.437 1.165,2.603 2.603,2.603 4.04,2.603 5.205,1.437 5.205,0 5.205,-1.437 4.04,-2.603 2.603,-2.603 1.165,-2.603 0,-1.437 0,0"
             style="fill:#3f3529;fill-opacity:1;fill-rule:nonzero;stroke:none"
             id="path1323" />
        </g>
        <g
           style="fill:#3f3529;fill-opacity:1"
           id="g1329"
           transform="translate(565.8676,168.9239)">
          <path
             d="M 0,0 C 0,1.006 0.815,1.821 1.821,1.821 2.827,1.821 3.643,1.006 3.643,0 3.643,-1.006 2.827,-1.821 1.821,-1.821 0.815,-1.821 0,-1.006 0,0"
             style="fill:#3f3529;fill-opacity:1;fill-rule:nonzero;stroke:none"
             id="path1327" />
        </g>
        <g
           style="fill:#3f3529;fill-opacity:1"
           id="g1333"
           transform="translate(558.8676,169.4028)">
          <path
             d="M 0,0 C 0,0.741 0.601,1.343 1.343,1.343 2.084,1.343 2.685,0.741 2.685,0 2.685,-0.741 2.084,-1.343 1.343,-1.343 0.601,-1.343 0,-0.741 0,0"
             style="fill:#3f3529;fill-opacity:1;fill-rule:nonzero;stroke:none"
             id="path1331" />
        </g>
        <g
           style="fill:#3f3529;fill-opacity:1"
           id="g1337"
           transform="translate(616.6306,167.4346)">
          <path
             d="m 0,0 c 0,1.828 -1.482,3.311 -3.311,3.311 -1.828,0 -3.31,-1.483 -3.31,-3.311 0,-1.828 1.482,-3.311 3.31,-3.311 C -1.482,-3.311 0,-1.828 0,0"
             style="fill:#3f3529;fill-opacity:1;fill-rule:nonzero;stroke:none"
             id="path1335" />
        </g>
        <g
           style="fill:#3f3529;fill-opacity:1"
           id="g1341"
           transform="translate(626.6095,168.1427)">
          <path
             d="M 0,0 C 0,1.437 -1.165,2.603 -2.603,2.603 -4.04,2.603 -5.205,1.437 -5.205,0 c 0,-1.437 1.165,-2.603 2.602,-2.603 C -1.165,-2.603 0,-1.437 0,0"
             style="fill:#3f3529;fill-opacity:1;fill-rule:nonzero;stroke:none"
             id="path1339" />
        </g>
        <g
           style="fill:#3f3529;fill-opacity:1"
           id="g1345"
           transform="translate(634.1324,168.9239)">
          <path
             d="m 0,0 c 0,1.006 -0.816,1.821 -1.821,1.821 -1.006,0 -1.822,-0.815 -1.822,-1.821 0,-1.006 0.816,-1.821 1.822,-1.821 C -0.816,-1.821 0,-1.006 0,0"
             style="fill:#3f3529;fill-opacity:1;fill-rule:nonzero;stroke:none"
             id="path1343" />
        </g>
        <g
           style="fill:#3f3529;fill-opacity:1"
           id="g1349"
           transform="translate(641.1324,169.4028)">
          <path
             d="m 0,0 c 0,0.741 -0.601,1.343 -1.343,1.343 -0.741,0 -1.342,-0.602 -1.342,-1.343 0,-0.741 0.601,-1.343 1.342,-1.343 C -0.601,-1.343 0,-0.741 0,0"
             style="fill:#3f3529;fill-opacity:1;fill-rule:nonzero;stroke:none"
             id="path1347" />
        </g>
      </g>
    </g>
    <g
       id="g1361"
       transform="matrix(1.1298678,0,0,0.97427894,-48.443171,147.82266)">
      <g
         id="g1359">
        <text
           style="font-variant:normal;font-weight:normal;font-stretch:normal;font-size:13.76023769px;font-family:Ultra;-inkscape-font-specification:Ultra;writing-mode:lr-tb;fill:#3f3529;fill-opacity:1;fill-rule:nonzero;stroke:none;stroke-width:0.43000743"
           id="text1357"
           x="73.798149"
           y="112.59109"
           transform="scale(1.0102736,0.98983087)">
          <tspan
             id="tspan1355"
             style="font-style:normal;font-variant:normal;font-weight:normal;font-stretch:normal;font-family:'Mission Script';-inkscape-font-specification:'Mission Script';fill:#3f3529;fill-opacity:1;stroke-width:0.43000743"
             x="73.798149"
             y="112.59109">La Bataille</tspan>
        </text>
      </g>
    </g>
    <path
       xlink:href="#text6124"
       style="font-style:normal;font-variant:normal;font-weight:normal;font-stretch:normal;font-size:3.52777767px;line-height:125%;font-family:FontAwesome;-inkscape-font-specification:FontAwesome;letter-spacing:0px;word-spacing:0px;fill:#d8424c;fill-opacity:1;stroke:none;stroke-width:0.26458332px;stroke-linecap:butt;stroke-linejoin:miter;stroke-opacity:1"
       id="path1363"
       d="m 104.68359,77.21875 c -0.90311,0.02258 -1.05078,1.218917 -1.05078,1.941406 0,0.643467 0.25946,1.466768 0.50781,2.132813 0.48543,1.162755 0.7461,1.784464 0.7461,2.484375 0,0.530578 -0.024,0.800781 -0.19336,0.800781 -0.24836,0 -0.24805,-1.162231 -0.24805,-1.421875 l -0.91406,0.134766 c 0,0.756355 -0.0232,2.40625 1.16211,2.40625 0.97084,0 1.11914,-1.186341 1.11914,-1.976563 0,-0.835378 -0.30649,-1.625288 -0.71289,-2.607422 -0.32738,-0.824089 -0.55273,-1.411258 -0.55273,-1.953125 0,-0.485422 0.0227,-0.824218 0.1582,-0.824218 0.18062,0 0.18164,0.915473 0.18164,1.208984 l 0.92578,-0.136719 c 0,-0.688622 -0.0452,-2.212031 -1.12891,-2.189453 z m 8.79688,0 c -0.90311,0.02258 -1.05078,1.218917 -1.05078,1.941406 0,0.643467 0.25945,1.466768 0.50781,2.132813 0.48542,1.162755 0.74609,1.784464 0.74609,2.484375 0,0.530578 -0.0221,0.800781 -0.1914,0.800781 -0.24836,0 -0.25,-1.162231 -0.25,-1.421875 l -0.91407,0.134766 c 0,0.756355 -0.0213,2.40625 1.16407,2.40625 0.97084,0 1.11718,-1.186341 1.11719,-1.976563 0,-0.835378 -0.30454,-1.625288 -0.71094,-2.607422 -0.32738,-0.824089 -0.55469,-1.411258 -0.55469,-1.953125 0,-0.485422 0.0227,-0.824218 0.1582,-0.824218 0.18063,0 0.18164,0.915473 0.18164,1.208984 l 0.92579,-0.136719 c 0,-0.688622 -0.0452,-2.212031 -1.12891,-2.189453 z m -34.117189,0.08984 V 78.5625 h 0.689453 v 7.042969 h 0.935547 V 78.5625 h 0.689453 v -1.253906 z m 2.671875,0 v 6.705078 c 0,0.846667 0.214077,1.683594 1.117188,1.683594 0.846666,0 1.107422,-0.746616 1.107422,-1.683594 v -6.705078 h -0.9375 v 6.705078 c 0,0.270933 -0.03446,0.498047 -0.169922,0.498047 -0.146756,0 -0.179688,-0.181958 -0.179688,-0.498047 v -6.705078 z m 4.113282,0 v 8.296875 h 0.9375 v -3.31836 c 0.338666,-0.01129 0.678089,-0.135942 0.892578,-0.474609 0.248355,-0.395111 0.394531,-1.082553 0.394531,-2.019531 0,-0.936978 -0.146176,-1.59317 -0.394531,-1.988281 -0.248356,-0.383823 -0.508326,-0.496094 -0.88086,-0.496094 z m 2.71289,0 v 8.296875 h 1.873047 v -1.251953 h -0.935547 v -2.28125 h 0.677734 V 80.740234 H 89.798828 V 78.5625 h 0.935547 v -1.253906 z m 2.345703,0 v 6.705078 c 0,0.846667 0.21603,1.683594 1.119141,1.683594 0.846667,0 1.105469,-0.746616 1.105469,-1.683594 v -6.705078 h -0.9375 v 6.705078 c 0,0.270933 -0.0325,0.498047 -0.167969,0.498047 -0.146756,0 -0.181641,-0.181958 -0.181641,-0.498047 v -6.705078 z m 2.699219,0 0.394531,1.976562 c 0.112889,0.620889 0.270354,1.342002 0.394531,1.962891 l -0.800781,4.357422 h 0.914063 l 0.349609,-2.291016 0.349609,2.291016 h 0.916016 l -0.542969,-2.933594 c -0.09031,-0.474133 -0.169454,-0.960984 -0.259765,-1.423828 l 0.791015,-3.939453 h -0.925781 c -0.1016,0.666044 -0.226525,1.343721 -0.328125,2.009765 l -0.326172,-2.009765 z m 4.193359,0 v 8.296875 h 0.9375 v -3.31836 c 0.338667,-0.01129 0.676136,-0.135942 0.890625,-0.474609 0.248356,-0.395111 0.396486,-1.082553 0.396486,-2.019531 0,-0.936978 -0.14813,-1.59317 -0.396486,-1.988281 -0.248355,-0.383823 -0.506373,-0.496094 -0.878906,-0.496094 z m 3.265621,0 -0.75585,8.296875 h 0.91406 l 0.12304,-1.69336 h 0.51954 l 0.125,1.69336 h 0.91406 l -0.7461,-8.296875 z m 5.9336,0 V 78.5625 h 0.68945 v 7.042969 h 0.93555 V 78.5625 h 0.68945 v -1.253906 z m 2.75195,0 v 8.296875 h 1.87305 v -1.251953 h -0.9375 v -2.28125 h 0.67773 v -1.332032 h -0.67773 V 78.5625 h 0.9375 v -1.253906 z m 4.83203,0 V 78.5625 h 0.68946 v 7.042969 h 0.9375 V 78.5625 h 0.6875 v -1.253906 z m -27.796872,1.21875 c 0.1016,0 0.236524,8.22e-4 0.292968,0.125 0.09031,0.2032 0.0918,0.722702 0.0918,1.185547 0,0.462844 -0.0015,0.891643 -0.0918,1.072265 -0.05644,0.112889 -0.202657,0.134766 -0.292968,0.134766 z m 11.951171,0 c 0.1016,0 0.236525,8.22e-4 0.292969,0.125 0.09031,0.2032 0.08984,0.722702 0.08984,1.185547 0,0.462844 4.67e-4,0.891643 -0.08984,1.072265 -0.05644,0.112889 -0.202658,0.134766 -0.292969,0.134766 z m 2.869141,0.802734 0.18164,3.294922 h -0.34961 z"
       transform="translate(-35.675431,147.55163)" />
    <text
       xml:space="preserve"
       style="font-style:normal;font-variant:normal;font-weight:normal;font-stretch:normal;font-size:7.76111126px;line-height:125%;font-family:'League Gothic';-inkscape-font-specification:'League Gothic';letter-spacing:0px;word-spacing:0px;fill:#d8424c;fill-opacity:1;stroke:none;stroke-width:0.34076202px;stroke-linecap:butt;stroke-linejoin:miter;stroke-opacity:1"
       x="39.449654"
       y="370.95978"
       id="text1367"
       transform="scale(1.2879195,0.77644604)"><tspan
         id="tspan1365"
         x="39.449654"
         y="370.95978"
         style="font-style:normal;font-variant:normal;font-weight:normal;font-stretch:normal;font-size:7.76111126px;font-family:'League Gothic';-inkscape-font-specification:'League Gothic';fill:#d8424c;fill-opacity:1;stroke-width:0.34076202px">SAISON 1</tspan></text>
    <path
       d="m 41.301949,264.11842 c 0.26302,0.26299 0.2525,0.68379 -0.0108,0.95727 -0.27352,0.26301 -0.69427,0.26301 -0.95729,-0.0109 l -1.69377,-1.78845 -1.57801,1.90413 c -0.14727,0.15786 -0.41029,0.15786 -0.5681,0 l -0.41029,-0.42084 c -0.15781,-0.14715 -0.15781,-0.41024 0,-0.56804 l 1.80946,-1.68325 -0.87319,-0.84163 c -0.28405,-0.27355 -0.45243,-0.35769 -0.68383,-0.28404 -0.23145,0.0841 -0.55758,0.0841 -0.86261,-0.11578 -0.65226,-0.42082 -0.61024,-1.20984 -0.61024,-1.20984 l 0.0527,-0.0841 c 0,0 0.58914,0.37875 0.66279,0.42083 0.0947,0.0738 0.4208,0.22091 0.71543,-0.23144 0.30509,-0.45239 0.0527,-0.73644 -0.0316,-0.78903 -0.0737,-0.042 -0.66279,-0.43134 -0.66279,-0.43134 l 0.0527,-0.0841 c 0,0 0.68383,-0.34717 1.32552,0.0315 0,0.0211 0.15781,0.11577 0.22093,0.16839 0.41029,0.36821 0.41029,0.7785 0.33664,1.11515 -0.0632,0.3051 0,0.4103 0.24198,0.67331 l 0.87318,0.87318 1.04153,-1.06255 0.75741,0.77851 -0.9994,1.02049 z m 1.56753,-2.66167 -0.56809,0.57862 c -0.11576,0.11578 -0.29462,0.11578 -0.42082,0 l -0.12618,-0.1368 c -0.0947,-0.0841 -0.13676,-0.24195 -0.0841,-0.31561 0.0947,-0.0633 0.0632,-0.25247 -0.11576,-0.42079 -0.25249,-0.26302 -0.57861,-0.27353 -0.70481,-0.1368 -0.0527,0.0422 -0.22093,0.22094 -0.22093,0.22094 l -0.7785,-0.76799 0.12616,-0.12627 c 0,0 0.0315,-0.0314 0.0947,-0.10514 0.24199,-0.24197 -0.0105,-0.5155 -0.0105,-0.5155 -0.68382,-0.6733 -1.64112,-0.66278 -1.64112,-0.66278 l -0.0105,-0.24196 c 1.92523,-0.49446 2.65108,0.34717 2.91411,0.61017 0.24195,0.24197 0.49439,0.49443 0.55757,0.55759 0.13678,0.1368 0,0.526 0.19987,0.74694 0.0947,0.0946 0.22094,0.13678 0.31562,0.13678 0.10522,-0.0946 0.27353,-0.0633 0.35769,0.0314 l 0.11576,0.12627 c 0.11564,0.11578 0.11564,0.29458 -5e-5,0.42082 z m -1.80944,2.88252 c -0.13682,-0.1368 -0.3577,-0.1368 -0.50503,0 -0.12616,0.13679 -0.12616,0.36823 0,0.49446 0.14734,0.1368 0.36822,0.15787 0.50503,0.0109 0.1367,-0.12627 0.1367,-0.36822 0,-0.50498 z"
       id="path1369"
       style="fill:#3f3529;fill-opacity:1;stroke-width:0.05260178" />
    <g
       style="fill:#3f3529;fill-opacity:1"
       id="g1375"
       transform="matrix(0.00708051,0,0,0.00708051,82.349579,258.28091)">
      <g
         style="fill:#3f3529;fill-opacity:1"
         id="g1373"
         transform="matrix(0.1,0,0,-0.1,0,511)">
        <path
           style="fill:#3f3529;fill-opacity:1"
           id="path1371"
           d="m 4286.3,4976.4 c -39.3,-21.8 -85.1,-72 -104.8,-106.9 -72,-141.9 -665.7,-1704.6 -711.5,-1879.2 -39.3,-141.9 -50.2,-246.6 -52.4,-438.7 0,-246.6 2.2,-253.2 80.8,-414.7 146.2,-294.6 430,-497.6 803.2,-578.4 185.5,-39.3 467.1,-30.5 637.3,21.8 196.4,61.1 641.7,259.7 1283.4,569.7 403.8,196.4 718.1,336.1 840.3,371.1 456.2,131 849.1,30.5 1036.8,-266.3 159.3,-251 126.6,-530.4 -102.6,-868.7 C 7850.6,1170 7772,982.3 7739.3,770.6 L 7724,676.8 4175,672.2 623.9,665.7 501.7,608.9 C 346.7,536.9 228.9,419 156.8,264.1 L 100,141.9 v -2206.6 -2206.7 l 76.4,-150.6 c 54.6,-107 106.9,-172.4 185.5,-231.4 213.9,-163.7 -155,-152.8 4675.2,-144 l 4339.1,6.6 120,56.7 c 168.1,78.6 270.7,174.6 342.7,320.8 l 61.1,124.4 v 2237.2 2237.2 l -52.4,104.8 c -72,146.2 -224.8,290.3 -366.7,342.7 -104.8,39.3 -170.2,43.7 -617.7,43.7 -462.7,0 -502,2.2 -502,39.3 0,48 98.2,259.7 161.5,342.7 89.5,122.2 163.7,266.3 224.8,438.7 50.2,148.4 58.9,209.5 58.9,423.4 2.2,207.3 -6.6,277.2 -48,397.2 -176.8,512.9 -718.1,888.3 -1283.4,890.5 -185.5,0 -484.5,-54.6 -718.1,-133.1 -107,-37.1 -486.7,-207.4 -840.3,-379.8 -353.6,-172.4 -750.8,-360.1 -884,-416.9 -233.5,-102.6 -246.6,-104.8 -458.3,-107 -185.5,0 -233.5,6.6 -323,52.4 -56.7,26.2 -131,85.1 -163.7,128.8 -52.4,67.7 -58.9,96 -54.6,220.4 4.4,189.9 58.9,357.9 414.7,1279 163.7,421.3 301.2,798.8 305.6,842.5 13.1,93.8 -30.6,187.7 -124.4,268.5 -87.3,72 -237.9,78.6 -342.6,13.1 z M 2354.6,-550 c 37.1,-37.1 37.1,-608.9 0,-646 -37.1,-37.1 -587.1,-37.1 -624.2,0 -37.1,37.1 -37.1,609 0,646 17.5,17.5 117.9,26.2 312.1,26.2 194.2,0 294.7,-8.8 312.1,-26.2 z m 1178.7,0 c 37.1,-37.1 37.1,-608.9 0,-646 -37.1,-37.1 -587.1,-37.1 -624.2,0 -17.5,17.5 -26.2,122.2 -26.2,323 0,200.8 8.7,305.6 26.2,323 17.5,17.5 117.9,26.2 312.1,26.2 194.2,0 294.6,-8.8 312.1,-26.2 z m 1191.7,-8.8 c 28.4,-26.2 34.9,-87.3 34.9,-314.3 0,-227 -6.5,-288.1 -34.9,-314.3 -26.2,-28.4 -87.3,-34.9 -314.3,-34.9 -227,0 -288.1,6.5 -314.3,34.9 -50.2,50.2 -50.2,578.4 0,628.6 50.2,50.2 578.4,50.2 628.6,0 z m 1187.3,8.8 c 37.1,-37.1 37.1,-608.9 0,-646 -37.1,-37.1 -587.1,-37.1 -624.2,0 -37.1,37.1 -37.1,609 0,646 17.5,17.5 117.9,26.2 312.1,26.2 194.2,0 294.7,-8.8 312.1,-26.2 z m 1193.9,-26.2 c 48,-72 34.9,-595.9 -13.1,-626.4 -43.7,-26.2 -558.8,-24 -611.1,2.2 -37.1,21.8 -41.5,48 -41.5,323 0,205.2 8.8,310 26.2,327.4 17.5,17.5 120,26.2 316.5,26.2 281.6,0 290.3,-2.2 323,-52.4 z m 1185.2,26.2 c 17.5,-17.4 26.2,-122.2 26.2,-327.4 0,-275 -4.4,-301.2 -41.5,-323 -54.6,-28.4 -569.6,-28.4 -613.3,0 -26.2,15.3 -32.7,78.6 -32.7,327.4 0,248.8 6.5,312.1 32.7,327.4 50.2,32.7 595.9,28.3 628.6,-4.4 z M 2376.5,-2038.6 c 4.4,-207.4 -2.2,-312.1 -19.6,-331.8 -19.6,-26.2 -89.5,-30.5 -333.9,-26.2 l -307.7,6.6 -6.5,305.6 c -2.2,165.9 0,316.5 4.4,331.7 8.7,24 82.9,28.4 334,24 l 323,-6.5 z m 1172.1,-24 V -2390 l -303.4,-6.6 c -203,-4.3 -312.1,2.2 -331.8,19.6 -24,19.7 -30.6,96 -30.6,325.2 0,163.7 6.5,305.6 15.3,314.3 8.7,6.5 157.1,10.9 331.8,8.7 l 318.7,-6.5 z m 1185.1,312.1 c 37.1,-37.1 37.1,-587.1 0,-624.2 -17.5,-17.5 -122.2,-26.2 -327.4,-26.2 -275,0 -301.2,4.3 -323,41.5 -32.7,61.1 -28.4,576.2 4.4,608.9 17.5,17.5 122.2,26.2 323,26.2 200.8,0 305.6,-8.7 323,-26.2 z m 1200.5,-288.1 c 4.4,-207.4 -2.2,-312.1 -19.6,-331.8 -19.6,-26.2 -89.5,-30.5 -334,-26.2 l -307.7,6.6 -6.5,305.6 c -2.2,165.9 0,316.5 4.4,331.7 8.7,24 82.9,28.4 333.9,24 l 323,-6.5 z m 1178.6,277.2 c 24,-48 21.8,-574 -2.2,-611.1 -24,-39.3 -606.8,-39.3 -643.9,-2.2 -28.4,28.4 -39.3,550 -13.1,615.5 10.9,30.5 61.1,34.9 327.4,34.9 275,0 314.3,-4.4 331.8,-37.1 z m 1191.7,2.2 c 26.2,-65.5 15.3,-587.1 -13.1,-615.5 -17.5,-17.5 -122.2,-26.2 -327.4,-26.2 -264.1,0 -301.2,4.3 -318.7,39.3 -24,45.8 -21.8,571.9 2.2,611.1 13.1,19.7 104.8,26.2 331.8,26.2 264.1,0 314.3,-4.4 325.2,-34.9 z M 2356.8,-2933.5 c 17.5,-19.6 24,-128.8 19.6,-331.7 l -6.5,-303.4 h -327.4 -327.4 l -6.5,305.6 c -2.2,165.9 0,316.5 4.4,331.7 17.4,41.5 608.9,41.5 643.8,-2.2 z m 4760.3,-10.9 c 32.7,-63.3 28.4,-552.2 -4.4,-598 -26.2,-34.9 -172.4,-37.1 -2112.8,-32.7 l -2084.4,6.6 -6.5,303.4 c -4.4,203 2.2,312.1 19.6,331.7 21.8,26.2 355.8,30.6 2095.3,30.6 2023.4,-0.1 2071.4,-0.1 2093.2,-41.6 z m 1174.3,15.3 c 28.4,-28.3 39.3,-550 13.1,-615.5 -10.9,-30.6 -61.1,-34.9 -327.4,-34.9 h -314.3 l -24,58.9 c -24,63.3 -15.3,547.8 10.9,591.5 21.8,37.1 604.6,37.1 641.7,0 z" />
      </g>
    </g>
    <text
       xml:space="preserve"
       style="font-style:normal;font-variant:normal;font-weight:normal;font-stretch:normal;font-size:7.05555534px;line-height:125%;font-family:'Wisdom Script';-inkscape-font-specification:'Wisdom Script';letter-spacing:0px;word-spacing:0px;fill:#3f3529;fill-opacity:1;stroke:none;stroke-width:0.26458332px;stroke-linecap:butt;stroke-linejoin:miter;stroke-opacity:1"
       x="44.931507"
       y="265.26785"
       id="text1379"><tspan
         id="tspan1377"
         x="44.931507"
         y="265.26785"
         style="font-style:normal;font-variant:normal;font-weight:normal;font-stretch:normal;font-size:7.05555534px;font-family:Pacifico;-inkscape-font-specification:Pacifico;fill:#3f3529;fill-opacity:1;stroke-width:0.26458332px">des artisans</tspan></text>
  </g>
</svg>
