<?xml version="1.0" encoding="UTF-8" standalone="no"?>
<svg
   xmlns:dc="http://purl.org/dc/elements/1.1/"
   xmlns:cc="http://creativecommons.org/ns#"
   xmlns:rdf="http://www.w3.org/1999/02/22-rdf-syntax-ns#"
   xmlns:svg="http://www.w3.org/2000/svg"
   xmlns="http://www.w3.org/2000/svg"
   xmlns:xlink="http://www.w3.org/1999/xlink"
   width="125.20965mm"
   height="80.54763mm"
   viewBox="0 0 125.20965 80.54763"
   version="1.1"
   id="svg1465">
  <defs
     id="defs1459" />
  <metadata
     id="metadata1462">
    <rdf:RDF>
      <cc:Work
         rdf:about="">
        <dc:format>image/svg+xml</dc:format>
        <dc:type
           rdf:resource="http://purl.org/dc/dcmitype/StillImage" />
        <dc:title></dc:title>
      </cc:Work>
    </rdf:RDF>
  </metadata>
  <g
     id="layer1"
     transform="translate(-1.08361e-6,-216.45236)">
    <g
       transform="translate(-295.71661,196.33928)"
       id="g1259">
      <g
         transform="matrix(0.35277777,0,0,-0.35277777,418.2255,37.434473)"
         id="g1243"
         style="fill:#3f3529;fill-opacity:1">
        <path
           id="path1241"
           style="fill:#3f3529;fill-opacity:1;fill-rule:nonzero;stroke:none"
           d="M 0,0 H -5.401 C -5.528,0 -5.7,-0.034 -5.934,-0.094 l -0.579,-0.146 -0.613,0.079 c -6.927,0.857 -12.672,5.751 -14.633,12.458 l -0.13,0.437 v 7.055 c 0,1.124 -0.923,2.05 -2.057,2.05 h -52.911 l -0.732,0.408 c -25.751,14.46 -58.503,22.464 -92.302,22.592 -33.799,-0.128 -66.551,-8.132 -92.302,-22.592 l -0.732,-0.408 h -52.911 c -1.134,0 -2.057,-0.926 -2.057,-2.05 v -7.055 l -0.13,-0.437 c -1.961,-6.707 -7.706,-11.601 -14.634,-12.458 l -0.612,-0.079 -0.58,0.146 c -0.233,0.06 -0.405,0.094 -0.533,0.094 h -5.4 c -1.126,0 -2.05,-0.925 -2.05,-2.061 v -61.299 -3.461 -61.299 c 0,-1.136 0.924,-2.061 2.05,-2.061 h 5.4 c 0.128,0 0.3,0.034 0.533,0.094 l 0.58,0.146 0.612,-0.078 c 6.928,-0.858 12.673,-5.752 14.634,-12.459 l 0.13,-0.436 v -7.056 c 0,-1.124 0.923,-2.049 2.057,-2.049 h 52.911 l 0.732,-0.408 c 25.751,-14.46 58.503,-22.465 92.302,-22.592 33.799,0.127 66.551,8.132 92.302,22.592 l 0.732,0.408 h 52.911 c 1.134,0 2.057,0.925 2.057,2.049 v 7.056 l 0.13,0.436 c 1.961,6.707 7.706,11.601 14.633,12.459 l 0.613,0.078 0.579,-0.146 c 0.234,-0.06 0.406,-0.094 0.533,-0.094 H 0 c 1.126,0 2.049,0.925 2.049,2.061 v 61.299 3.461 61.299 C 2.049,-0.925 1.126,0 0,0" />
      </g>
      <g
         transform="matrix(0.35277777,0,0,-0.35277777,420.4613,61.072347)"
         id="g1247"
         style="fill:#3f3529;fill-opacity:1">
        <path
           id="path1245"
           style="fill:#3f3529;fill-opacity:1;fill-rule:nonzero;stroke:none"
           d="m 0,0 v -62.388 c 0,-1.524 -1.232,-2.753 -2.745,-2.753 h -5.512 c -0.183,0 -0.409,0.037 -0.701,0.106 l -0.479,0.128 -0.494,-0.066 c -6.817,-0.85 -12.463,-5.66 -14.393,-12.244 l -0.077,-0.271 -0.031,-7.202 c 0,-1.517 -1.231,-2.744 -2.754,-2.744 h -53.835 l -0.601,-0.342 c -26.372,-14.804 -59.916,-23.003 -94.522,-23.133 -34.607,0.13 -68.15,8.329 -94.523,23.133 l -0.6,0.342 h -53.836 c -1.522,0 -2.754,1.227 -2.754,2.744 l -0.031,7.202 -0.077,0.271 c -1.929,6.584 -7.576,11.394 -14.393,12.244 l -0.494,0.066 -0.479,-0.128 c -0.291,-0.069 -0.517,-0.106 -0.701,-0.106 h -5.512 c -1.513,0 -2.745,1.229 -2.745,2.753 V 0 3.886 66.274 c 0,1.524 1.232,2.752 2.745,2.752 h 5.512 c 0.184,0 0.41,-0.037 0.701,-0.106 l 0.479,-0.128 0.494,0.067 c 6.817,0.85 12.464,5.66 14.393,12.244 l 0.077,0.271 0.031,7.201 c 0,1.517 1.232,2.745 2.754,2.745 h 53.836 l 0.6,0.342 c 26.373,14.804 59.916,23.003 94.523,23.133 34.606,-0.13 68.15,-8.329 94.522,-23.133 l 0.601,-0.342 h 53.835 c 1.523,0 2.754,-1.228 2.754,-2.745 l 0.031,-7.201 0.077,-0.271 c 1.93,-6.584 7.576,-11.394 14.393,-12.244 l 0.494,-0.067 0.479,0.128 c 0.292,0.069 0.518,0.106 0.701,0.106 h 5.512 C -1.232,69.026 0,67.798 0,66.274 V 3.886 Z m -2.745,70.338 h -5.512 c -0.298,0 -0.628,-0.049 -1.025,-0.152 l -0.238,-0.061 -0.254,0.032 c -6.289,0.79 -11.511,5.232 -13.295,11.318 l -0.048,0.186 v 6.914 c 0,2.238 -1.824,4.062 -4.069,4.062 H -80.68 l -0.299,0.171 c -26.565,14.911 -60.334,23.167 -95.165,23.297 -34.832,-0.13 -68.6,-8.386 -95.166,-23.297 l -0.299,-0.171 h -53.494 c -2.245,0 -4.069,-1.824 -4.069,-4.062 v -6.914 l -0.048,-0.186 c -1.784,-6.086 -7.005,-10.528 -13.294,-11.318 l -0.254,-0.032 -0.238,0.061 c -0.398,0.103 -0.728,0.152 -1.026,0.152 h -5.512 c -2.235,0 -4.063,-1.818 -4.063,-4.064 V 4.265 -0.379 -62.388 c 0,-2.246 1.828,-4.064 4.063,-4.064 h 5.512 c 0.298,0 0.628,0.049 1.026,0.152 l 0.238,0.061 0.254,-0.032 c 6.289,-0.79 11.51,-5.232 13.294,-11.318 l 0.048,-0.187 v -6.914 c 0,-2.237 1.824,-4.061 4.069,-4.061 h 53.494 l 0.299,-0.171 c 26.566,-14.911 60.334,-23.167 95.166,-23.297 34.831,0.13 68.6,8.386 95.165,23.297 l 0.299,0.171 h 53.494 c 2.245,0 4.069,1.824 4.069,4.061 v 6.914 l 0.048,0.187 c 1.784,6.086 7.006,10.528 13.295,11.318 l 0.254,0.032 0.238,-0.061 c 0.397,-0.103 0.727,-0.152 1.025,-0.152 h 5.512 c 2.236,0 4.063,1.818 4.063,4.064 v 62.009 4.644 62.009 c 0,2.246 -1.827,4.064 -4.063,4.064" />
      </g>
      <g
         transform="matrix(0.35277777,0,0,-0.35277777,416.48616,60.386917)"
         id="g1251"
         style="fill:#7fcfaa;fill-opacity:1">
        <path
           id="path1249"
           style="fill:#7fcfaa;fill-opacity:1;fill-rule:nonzero;stroke:none"
           d="m 0,0 v -57.933 l -1.046,0.265 -1.938,-0.243 c -9.727,-1.221 -17.789,-8.084 -20.542,-17.487 l -0.359,-1.243 -0.055,-3.224 h -49.751 l -2.342,-1.318 c -24.713,-13.87 -56.235,-21.555 -88.843,-21.682 -32.609,0.127 -64.131,7.812 -88.844,21.682 l -2.341,1.318 h -49.751 l -0.055,3.224 -0.36,1.243 c -2.753,9.403 -10.814,16.266 -20.542,17.487 l -1.937,0.243 -1.046,-0.265 V 0 57.933 l 1.046,-0.265 1.937,0.243 c 9.728,1.221 17.789,8.084 20.542,17.487 l 0.36,1.243 0.055,3.224 h 49.751 l 2.341,1.318 c 24.713,13.87 56.235,21.555 88.844,21.682 32.608,-0.127 64.13,-7.812 88.843,-21.682 l 2.342,-1.318 h 49.751 l 0.055,-3.224 0.359,-1.243 c 2.753,-9.403 10.815,-16.266 20.542,-17.487 L -1.046,57.668 0,57.933 Z m -1.207,60.28 -1.456,0.179 c -8.71,1.088 -15.932,7.237 -18.395,15.661 l -0.31,1.056 v 5.254 h -51.651 l -1.755,0.993 c -25.091,14.083 -57.059,21.882 -90.102,22.009 -33.043,-0.127 -65.012,-7.926 -90.103,-22.009 l -1.755,-0.993 h -51.651 v -5.254 l -0.309,-1.056 c -2.463,-8.424 -9.685,-14.573 -18.395,-15.661 l -1.457,-0.179 -1.05,0.268 -2.722,0.039 V 0.586 -0.586 -60.587 l 2.722,0.039 1.05,0.268 1.457,-0.179 c 8.71,-1.088 15.932,-7.237 18.395,-15.661 l 0.309,-1.056 v -5.254 h 51.651 l 1.755,-0.993 c 25.091,-14.083 57.06,-21.882 90.103,-22.009 33.043,0.127 65.011,7.926 90.102,22.009 l 1.755,0.993 h 51.651 v 5.254 l 0.31,1.056 c 2.463,8.424 9.685,14.573 18.395,15.661 l 1.456,0.179 1.051,-0.268 2.721,-0.039 v 60.001 1.172 60.001 l -2.721,-0.039 z" />
      </g>
      <g
         id="g1255"
         transform="matrix(0.35277777,0,0,-0.35277777,358.32144,37.87615)">
        <path
           d="M 0,0 -156.893,-63.81 0,-127.62 156.893,-63.81 Z"
           style="fill:none;stroke:#7fcfaa;stroke-width:1;stroke-linecap:butt;stroke-linejoin:miter;stroke-miterlimit:10;stroke-dasharray:none;stroke-opacity:1"
           id="path1253" />
      </g>
      <path
         d="m 358.32143,39.215827 -52.05447,21.171256 52.05447,21.17089 52.05448,-21.17089 z"
         style="fill:#7fcfaa;fill-opacity:1;fill-rule:nonzero;stroke:none;stroke-width:0.35277775"
         id="path1257" />
    </g>
    <g
       transform="matrix(0.35277777,0,0,-0.35277777,91.706139,237.4456)"
       id="g1263"
       style="fill:#d8424c;fill-opacity:1">
      <path
         id="path1261"
         style="fill:#d8424c;fill-opacity:1;fill-rule:nonzero;stroke:none"
         d="M 0,0 -2.462,3.998 -7.025,2.892 -3.984,6.469 -6.446,10.467 -2.104,8.68 0.937,12.257 0.579,7.575 4.921,5.788 0.358,4.682 Z" />
    </g>
    <g
       transform="matrix(0.35277777,0,0,-0.35277777,86.171369,283.71883)"
       id="g1267"
       style="fill:#d8424c;fill-opacity:1">
      <path
         id="path1265"
         style="fill:#d8424c;fill-opacity:1;fill-rule:nonzero;stroke:none"
         d="m 0,0 -4.568,1.086 -2.444,-4.009 -0.379,4.68 -4.568,1.086 4.334,1.806 -0.379,4.68 3.057,-3.563 4.334,1.806 -2.444,-4.008 z" />
    </g>
    <g
       transform="matrix(0.35277777,0,0,-0.35277777,39.038349,283.71883)"
       id="g1271"
       style="fill:#d8424c;fill-opacity:1">
      <path
         id="path1269"
         style="fill:#d8424c;fill-opacity:1;fill-rule:nonzero;stroke:none"
         d="M 0,0 4.568,1.086 7.012,-2.923 7.391,1.757 11.959,2.843 7.625,4.649 8.004,9.329 4.947,5.766 0.613,7.572 3.057,3.564 Z" />
    </g>
    <g
       transform="matrix(0.35277777,0,0,-0.35277777,33.503549,237.4456)"
       id="g1275"
       style="fill:#d8424c;fill-opacity:1">
      <path
         id="path1273"
         style="fill:#d8424c;fill-opacity:1;fill-rule:nonzero;stroke:none"
         d="M 0,0 2.462,3.998 7.025,2.892 3.984,6.469 6.446,10.467 2.104,8.68 -0.937,12.257 -0.579,7.575 -4.921,5.788 -0.358,4.682 Z" />
    </g>
    <g
       transform="matrix(0.35277777,0,0,-0.37448204,-149.06182,331.34174)"
       id="g1353"
       style="fill:#3f3529;fill-opacity:1">
      <g
         transform="translate(0,1.5)"
         id="g1313"
         style="fill:#3f3529;fill-opacity:1">
        <g
           transform="translate(604.9276,234.1822)"
           id="g1279"
           style="fill:#3f3529;fill-opacity:1">
          <path
             id="path1277"
             style="fill:#3f3529;fill-opacity:1;fill-rule:nonzero;stroke:none"
             d="m 0,0 c 0,-2.721 -2.206,-4.928 -4.928,-4.928 -2.721,0 -4.927,2.207 -4.927,4.928 0,2.721 2.206,4.928 4.927,4.928 C -2.206,4.928 0,2.721 0,0" />
        </g>
        <g
           transform="translate(616.6306,232.5654)"
           id="g1283"
           style="fill:#3f3529;fill-opacity:1">
          <path
             id="path1281"
             style="fill:#3f3529;fill-opacity:1;fill-rule:nonzero;stroke:none"
             d="m 0,0 c 0,-1.828 -1.482,-3.311 -3.311,-3.311 -1.828,0 -3.31,1.483 -3.31,3.311 0,1.828 1.482,3.311 3.31,3.311 C -1.482,3.311 0,1.828 0,0" />
        </g>
        <g
           transform="translate(626.6095,231.8573)"
           id="g1287"
           style="fill:#3f3529;fill-opacity:1">
          <path
             id="path1285"
             style="fill:#3f3529;fill-opacity:1;fill-rule:nonzero;stroke:none"
             d="m 0,0 c 0,-1.437 -1.165,-2.603 -2.603,-2.603 -1.437,0 -2.602,1.166 -2.602,2.603 0,1.437 1.165,2.603 2.602,2.603 C -1.165,2.603 0,1.437 0,0" />
        </g>
        <g
           transform="translate(634.1324,231.0761)"
           id="g1291"
           style="fill:#3f3529;fill-opacity:1">
          <path
             id="path1289"
             style="fill:#3f3529;fill-opacity:1;fill-rule:nonzero;stroke:none"
             d="m 0,0 c 0,-1.006 -0.816,-1.821 -1.821,-1.821 -1.006,0 -1.822,0.815 -1.822,1.821 0,1.006 0.816,1.821 1.822,1.821 C -0.816,1.821 0,1.006 0,0" />
        </g>
        <g
           transform="translate(641.1324,230.5972)"
           id="g1295"
           style="fill:#3f3529;fill-opacity:1">
          <path
             id="path1293"
             style="fill:#3f3529;fill-opacity:1;fill-rule:nonzero;stroke:none"
             d="m 0,0 c 0,-0.741 -0.601,-1.343 -1.343,-1.343 -0.741,0 -1.342,0.602 -1.342,1.343 0,0.741 0.601,1.343 1.342,1.343 C -0.601,1.343 0,0.741 0,0" />
        </g>
        <g
           transform="translate(583.3694,232.5654)"
           id="g1299"
           style="fill:#3f3529;fill-opacity:1">
          <path
             id="path1297"
             style="fill:#3f3529;fill-opacity:1;fill-rule:nonzero;stroke:none"
             d="m 0,0 c 0,-1.828 1.482,-3.311 3.311,-3.311 1.828,0 3.31,1.483 3.31,3.311 0,1.828 -1.482,3.311 -3.31,3.311 C 1.482,3.311 0,1.828 0,0" />
        </g>
        <g
           transform="translate(573.3904,231.8573)"
           id="g1303"
           style="fill:#3f3529;fill-opacity:1">
          <path
             id="path1301"
             style="fill:#3f3529;fill-opacity:1;fill-rule:nonzero;stroke:none"
             d="M 0,0 C 0,-1.437 1.165,-2.603 2.603,-2.603 4.04,-2.603 5.205,-1.437 5.205,0 5.205,1.437 4.04,2.603 2.603,2.603 1.165,2.603 0,1.437 0,0" />
        </g>
        <g
           transform="translate(565.8676,231.0761)"
           id="g1307"
           style="fill:#3f3529;fill-opacity:1">
          <path
             id="path1305"
             style="fill:#3f3529;fill-opacity:1;fill-rule:nonzero;stroke:none"
             d="m 0,0 c 0,-1.006 0.815,-1.821 1.821,-1.821 1.006,0 1.822,0.815 1.822,1.821 0,1.006 -0.816,1.821 -1.822,1.821 C 0.815,1.821 0,1.006 0,0" />
        </g>
        <g
           transform="translate(558.8676,230.5972)"
           id="g1311"
           style="fill:#3f3529;fill-opacity:1">
          <path
             id="path1309"
             style="fill:#3f3529;fill-opacity:1;fill-rule:nonzero;stroke:none"
             d="m 0,0 c 0,-0.741 0.601,-1.343 1.343,-1.343 0.741,0 1.342,0.602 1.342,1.343 0,0.741 -0.601,1.343 -1.342,1.343 C 0.601,1.343 0,0.741 0,0" />
        </g>
      </g>
      <g
         transform="translate(0,-3)"
         id="g1351"
         style="fill:#3f3529;fill-opacity:1">
        <g
           transform="translate(595.0724,165.8178)"
           id="g1317"
           style="fill:#3f3529;fill-opacity:1">
          <path
             id="path1315"
             style="fill:#3f3529;fill-opacity:1;fill-rule:nonzero;stroke:none"
             d="M 0,0 C 0,2.721 2.206,4.928 4.928,4.928 7.649,4.928 9.855,2.721 9.855,0 9.855,-2.721 7.649,-4.928 4.928,-4.928 2.206,-4.928 0,-2.721 0,0" />
        </g>
        <g
           transform="translate(583.3694,167.4346)"
           id="g1321"
           style="fill:#3f3529;fill-opacity:1">
          <path
             id="path1319"
             style="fill:#3f3529;fill-opacity:1;fill-rule:nonzero;stroke:none"
             d="m 0,0 c 0,1.828 1.482,3.311 3.311,3.311 1.828,0 3.31,-1.483 3.31,-3.311 0,-1.828 -1.482,-3.311 -3.31,-3.311 C 1.482,-3.311 0,-1.828 0,0" />
        </g>
        <g
           transform="translate(573.3904,168.1427)"
           id="g1325"
           style="fill:#3f3529;fill-opacity:1">
          <path
             id="path1323"
             style="fill:#3f3529;fill-opacity:1;fill-rule:nonzero;stroke:none"
             d="M 0,0 C 0,1.437 1.165,2.603 2.603,2.603 4.04,2.603 5.205,1.437 5.205,0 5.205,-1.437 4.04,-2.603 2.603,-2.603 1.165,-2.603 0,-1.437 0,0" />
        </g>
        <g
           transform="translate(565.8676,168.9239)"
           id="g1329"
           style="fill:#3f3529;fill-opacity:1">
          <path
             id="path1327"
             style="fill:#3f3529;fill-opacity:1;fill-rule:nonzero;stroke:none"
             d="M 0,0 C 0,1.006 0.815,1.821 1.821,1.821 2.827,1.821 3.643,1.006 3.643,0 3.643,-1.006 2.827,-1.821 1.821,-1.821 0.815,-1.821 0,-1.006 0,0" />
        </g>
        <g
           transform="translate(558.8676,169.4028)"
           id="g1333"
           style="fill:#3f3529;fill-opacity:1">
          <path
             id="path1331"
             style="fill:#3f3529;fill-opacity:1;fill-rule:nonzero;stroke:none"
             d="M 0,0 C 0,0.741 0.601,1.343 1.343,1.343 2.084,1.343 2.685,0.741 2.685,0 2.685,-0.741 2.084,-1.343 1.343,-1.343 0.601,-1.343 0,-0.741 0,0" />
        </g>
        <g
           transform="translate(616.6306,167.4346)"
           id="g1337"
           style="fill:#3f3529;fill-opacity:1">
          <path
             id="path1335"
             style="fill:#3f3529;fill-opacity:1;fill-rule:nonzero;stroke:none"
             d="m 0,0 c 0,1.828 -1.482,3.311 -3.311,3.311 -1.828,0 -3.31,-1.483 -3.31,-3.311 0,-1.828 1.482,-3.311 3.31,-3.311 C -1.482,-3.311 0,-1.828 0,0" />
        </g>
        <g
           transform="translate(626.6095,168.1427)"
           id="g1341"
           style="fill:#3f3529;fill-opacity:1">
          <path
             id="path1339"
             style="fill:#3f3529;fill-opacity:1;fill-rule:nonzero;stroke:none"
             d="M 0,0 C 0,1.437 -1.165,2.603 -2.603,2.603 -4.04,2.603 -5.205,1.437 -5.205,0 c 0,-1.437 1.165,-2.603 2.602,-2.603 C -1.165,-2.603 0,-1.437 0,0" />
        </g>
        <g
           transform="translate(634.1324,168.9239)"
           id="g1345"
           style="fill:#3f3529;fill-opacity:1">
          <path
             id="path1343"
             style="fill:#3f3529;fill-opacity:1;fill-rule:nonzero;stroke:none"
             d="m 0,0 c 0,1.006 -0.816,1.821 -1.821,1.821 -1.006,0 -1.822,-0.815 -1.822,-1.821 0,-1.006 0.816,-1.821 1.822,-1.821 C -0.816,-1.821 0,-1.006 0,0" />
        </g>
        <g
           transform="translate(641.1324,169.4028)"
           id="g1349"
           style="fill:#3f3529;fill-opacity:1">
          <path
             id="path1347"
             style="fill:#3f3529;fill-opacity:1;fill-rule:nonzero;stroke:none"
             d="m 0,0 c 0,0.741 -0.601,1.343 -1.343,1.343 -0.741,0 -1.342,-0.602 -1.342,-1.343 0,-0.741 0.601,-1.343 1.342,-1.343 C -0.601,-1.343 0,-0.741 0,0" />
        </g>
      </g>
    </g>
    <g
       transform="matrix(1.1298678,0,0,0.97427894,-48.443171,147.82266)"
       id="g1361">
      <g
         id="g1359">
        <g
           id="text1357"
           style="font-variant:normal;font-weight:normal;font-stretch:normal;font-size:13.76023769px;font-family:Ultra;-inkscape-font-specification:Ultra;writing-mode:lr-tb;fill:#3f3529;fill-opacity:1;fill-rule:nonzero;stroke:none;stroke-width:0.43000743"
           transform="scale(1.0102736,0.98983087)"
           aria-label="La Bataille">
          <path
             id="path886"
             style="font-style:normal;font-variant:normal;font-weight:normal;font-stretch:normal;font-family:'Mission Script';-inkscape-font-specification:'Mission Script';fill:#3f3529;fill-opacity:1;stroke-width:0.43000743"
             d="m 77.761098,103.08276 c -0.0688,0 -0.275205,-0.17888 -0.56417,-0.17888 -2.504363,0 -2.064036,6.93516 -3.508861,8.49007 -0.440327,0.19264 -0.949456,0.66049 -0.949456,1.08706 0,0.0963 0.05504,0.15136 0.137602,0.15136 0.233924,0 0.220164,-0.23393 1.045778,-0.23393 0.522889,0 0.839375,0.28897 1.843872,0.28897 1.775071,0 3.357498,-2.27044 3.522621,-2.75205 0.02752,-0.0826 0.04128,-0.1376 0.04128,-0.19264 0,-0.0826 -0.04128,-0.12384 -0.09632,-0.12384 -0.05504,0 -0.151363,0.0688 -0.220164,0.17888 -0.178883,0.28896 -1.417304,1.77507 -2.655726,1.77507 -0.770573,0 -1.320982,-0.17888 -1.802591,-0.26144 1.596188,-1.59619 1.995235,-7.70574 2.820849,-7.95342 0.110082,-0.0275 0.151363,-0.0275 0.206403,-0.0275 0.123843,0.2064 0.165123,0.45409 0.165123,0.72929 0,0.9357 -0.536649,2.2154 -0.536649,3.16485 0,0.60546 0.275205,0.89442 0.729293,0.89442 0.344006,0 0.660491,-0.19264 0.660491,-0.60545 0,-0.22016 -0.04128,-0.46785 -0.04128,-0.72929 0,-0.56417 0.0688,-1.18338 0.0688,-1.76131 0,-0.85314 -0.151363,-1.60995 -0.866895,-1.9402 z" />
          <path
             id="path888"
             style="font-style:normal;font-variant:normal;font-weight:normal;font-stretch:normal;font-family:'Mission Script';-inkscape-font-specification:'Mission Script';fill:#3f3529;fill-opacity:1;stroke-width:0.43000743"
             d="m 83.470306,107.62364 c 0.01376,-0.0688 0.01376,-0.1376 0.01376,-0.2064 0,-0.50913 -0.412807,-0.7981 -0.756813,-0.7981 h -0.08256 c -0.02752,-0.42656 -0.371527,-1.01825 -0.921936,-1.01825 -1.582427,0 -2.793328,3.10981 -2.793328,5.20137 0,1.07329 0.316485,1.87139 1.059538,1.87139 0.440328,0 0.963217,-0.59169 1.417304,-1.52739 -0.01376,0.0963 -0.01376,0.19265 -0.01376,0.26145 0,1.03201 0.509129,1.26594 0.935696,1.26594 1.059539,0 1.926434,-2.25668 2.119077,-2.73829 0.04128,-0.0963 0.05504,-0.17888 0.05504,-0.23392 0,-0.0963 -0.04128,-0.1376 -0.08256,-0.1376 -0.0688,0 -0.178884,0.0826 -0.247685,0.23392 -0.646731,1.33474 -1.073298,2.06403 -1.362263,2.06403 -0.123842,0 -0.192644,-0.1376 -0.192644,-0.344 0,-0.66049 0.481609,-2.1466 0.853135,-3.89415 z m -3.068533,4.11431 c -0.165123,0 -0.233924,-0.26144 -0.233924,-0.67425 0,-1.44482 0.839375,-4.66472 1.761311,-4.66472 0.330245,0 0.371526,0.28897 0.371526,0.52289 l -0.440328,1.98147 c -0.344006,1.52739 -0.949456,2.83461 -1.458585,2.83461 z" />
          <path
             id="path890"
             style="font-style:normal;font-variant:normal;font-weight:normal;font-stretch:normal;font-family:'Mission Script';-inkscape-font-specification:'Mission Script';fill:#3f3529;fill-opacity:1;stroke-width:0.43000743"
             d="m 88.135457,105.54585 c 0.56417,-1.25219 1.692509,-1.99524 2.779568,-1.99524 0.344006,0 0.701772,0.0688 1.032018,0.23393 l 0.01376,0.0138 c 0.247684,0.4816 0.357766,1.07329 0.357766,1.65122 0,1.25219 -0.522889,2.54565 -1.19714,3.02726 -0.123842,-0.0138 -0.233924,-0.0275 -0.371527,-0.0275 -0.275205,0 -0.536649,0.0826 -0.536649,0.28896 0,0.17888 0.275205,0.23392 0.57793,0.23392 0.110082,0 0.220164,-0.0138 0.330246,-0.0275 0.302725,0.28897 0.440327,0.71554 0.440327,1.18338 0,1.05954 -0.715532,2.29796 -1.843872,2.29796 -0.550409,0 -1.087058,-0.23392 -1.472345,-0.52288 1.857632,-0.60546 2.091556,-4.99497 2.683246,-6.9214 0.01376,-0.0413 0.01376,-0.0826 0.01376,-0.12385 0,-0.344 -0.426568,-0.60545 -0.798094,-0.60545 -0.233924,0 -0.440328,0.0963 -0.509129,0.33025 -0.770573,2.353 -0.825614,6.45355 -1.775071,7.01772 -0.357766,-0.31649 -0.509128,-0.61921 -0.798093,-0.61921 -0.330246,0 -0.646732,0.31648 -0.646732,0.61921 0,0.46785 1.307223,1.11458 3.591422,1.11458 1.73379,0 2.834609,-1.33474 2.834609,-2.50436 0,-0.60545 -0.275204,-1.16962 -0.866895,-1.48611 1.032018,-0.48161 1.596188,-1.56867 1.596188,-2.68325 0,-1.91267 -1.678749,-3.16485 -3.371258,-3.16485 -1.224661,0 -2.449323,0.59169 -3.027253,1.55491 -0.0688,0.11008 -0.09632,0.22016 -0.09632,0.344 0,0.46785 0.440327,0.97698 0.770573,0.97698 0.123842,0 0.220164,-0.055 0.288965,-0.2064 z" />
          <path
             id="path892"
             style="font-style:normal;font-variant:normal;font-weight:normal;font-stretch:normal;font-family:'Mission Script';-inkscape-font-specification:'Mission Script';fill:#3f3529;fill-opacity:1;stroke-width:0.43000743"
             d="m 98.171185,107.62364 c 0.01376,-0.0688 0.01376,-0.1376 0.01376,-0.2064 0,-0.50913 -0.412807,-0.7981 -0.756813,-0.7981 h -0.08256 c -0.02752,-0.42656 -0.371526,-1.01825 -0.921935,-1.01825 -1.582428,0 -2.793329,3.10981 -2.793329,5.20137 0,1.07329 0.316486,1.87139 1.059539,1.87139 0.440327,0 0.963216,-0.59169 1.417304,-1.52739 -0.01376,0.0963 -0.01376,0.19265 -0.01376,0.26145 0,1.03201 0.509129,1.26594 0.935696,1.26594 1.059538,0 1.926433,-2.25668 2.119077,-2.73829 0.04128,-0.0963 0.05504,-0.17888 0.05504,-0.23392 0,-0.0963 -0.04128,-0.1376 -0.08256,-0.1376 -0.0688,0 -0.178883,0.0826 -0.247684,0.23392 -0.646731,1.33474 -1.073299,2.06403 -1.362264,2.06403 -0.123842,0 -0.192643,-0.1376 -0.192643,-0.344 0,-0.66049 0.481608,-2.1466 0.853135,-3.89415 z m -3.068533,4.11431 c -0.165123,0 -0.233924,-0.26144 -0.233924,-0.67425 0,-1.44482 0.839374,-4.66472 1.76131,-4.66472 0.330246,0 0.371527,0.28897 0.371527,0.52289 l -0.440328,1.98147 c -0.344006,1.52739 -0.949456,2.83461 -1.458585,2.83461 z" />
          <path
             id="path894"
             style="font-style:normal;font-variant:normal;font-weight:normal;font-stretch:normal;font-family:'Mission Script';-inkscape-font-specification:'Mission Script';fill:#3f3529;fill-opacity:1;stroke-width:0.43000743"
             d="m 99.120642,105.60089 c -0.151363,0 -0.247685,0.22016 -0.247685,0.42656 0,0.17889 0.0688,0.35777 0.233924,0.37153 l 0.440328,0.0413 c -0.481608,1.96772 -0.825614,3.90791 -0.825614,4.81608 0,1.03202 0.454087,1.41731 0.990737,1.41731 1.155858,0 2.105318,-2.25668 2.297958,-2.73829 0.0413,-0.0963 0.055,-0.17888 0.055,-0.23392 0,-0.0963 -0.0413,-0.15137 -0.0963,-0.15137 -0.0688,0 -0.1376,0.0826 -0.23392,0.24769 -0.38529,0.61921 -1.08706,2.13284 -1.62371,2.13284 -0.206405,0 -0.288966,-0.22017 -0.288966,-0.57793 0,-0.99074 0.646726,-3.12358 1.169616,-4.93993 1.0045,-0.11008 1.51363,-0.24768 1.51363,-0.44033 0,-0.19264 -0.63297,-0.23392 -1.30722,-0.28896 0.15136,-0.55041 0.35776,-1.15586 0.35776,-1.49987 0,-0.46785 -0.37152,-0.68801 -0.71553,-0.68801 -0.26144,0 -0.49537,0.11008 -0.56417,0.34401 -0.17888,0.56417 -0.344004,1.15586 -0.509127,1.77507 -0.220164,-0.0138 -0.440328,-0.0138 -0.646731,-0.0138 z" />
          <path
             id="path896"
             style="font-style:normal;font-variant:normal;font-weight:normal;font-stretch:normal;font-family:'Mission Script';-inkscape-font-specification:'Mission Script';fill:#3f3529;fill-opacity:1;stroke-width:0.43000743"
             d="m 106.20695,107.62364 c 0.0138,-0.0688 0.0138,-0.1376 0.0138,-0.2064 0,-0.50913 -0.41281,-0.7981 -0.75682,-0.7981 h -0.0826 c -0.0275,-0.42656 -0.37152,-1.01825 -0.92193,-1.01825 -1.58243,0 -2.79333,3.10981 -2.79333,5.20137 0,1.07329 0.31648,1.87139 1.05954,1.87139 0.44033,0 0.96321,-0.59169 1.4173,-1.52739 -0.0138,0.0963 -0.0138,0.19265 -0.0138,0.26145 0,1.03201 0.50913,1.26594 0.9357,1.26594 1.05954,0 1.92643,-2.25668 2.11907,-2.73829 0.0413,-0.0963 0.055,-0.17888 0.055,-0.23392 0,-0.0963 -0.0413,-0.1376 -0.0826,-0.1376 -0.0688,0 -0.17888,0.0826 -0.24768,0.23392 -0.64673,1.33474 -1.0733,2.06403 -1.36226,2.06403 -0.12385,0 -0.19265,-0.1376 -0.19265,-0.344 0,-0.66049 0.48161,-2.1466 0.85314,-3.89415 z m -3.06854,4.11431 c -0.16512,0 -0.23392,-0.26144 -0.23392,-0.67425 0,-1.44482 0.83937,-4.66472 1.76131,-4.66472 0.33025,0 0.37153,0.28897 0.37153,0.52289 l -0.44033,1.98147 c -0.34401,1.52739 -0.94946,2.83461 -1.45859,2.83461 z" />
          <path
             id="path898"
             style="font-style:normal;font-variant:normal;font-weight:normal;font-stretch:normal;font-family:'Mission Script';-inkscape-font-specification:'Mission Script';fill:#3f3529;fill-opacity:1;stroke-width:0.43000743"
             d="m 108.55995,104.87159 c 0.8669,0 1.43107,-0.72929 1.43107,-1.30722 0,-0.38529 -0.24769,-0.71553 -0.81186,-0.71553 -0.75681,0 -1.23842,0.77057 -1.23842,1.36226 0,0.35777 0.19264,0.66049 0.61921,0.66049 z m 0.49537,1.33475 c 0,-0.46785 -0.37153,-0.70178 -0.71553,-0.70178 -0.26145,0 -0.48161,0.12385 -0.55041,0.35777 -0.55041,2.02276 -1.0733,4.5684 -1.0733,5.39401 0,1.03202 0.45409,1.41731 0.99074,1.41731 1.15586,0 1.95395,-2.25668 2.14659,-2.73829 0.0413,-0.0963 0.055,-0.16512 0.055,-0.23392 0,-0.0826 -0.0413,-0.1376 -0.0963,-0.1376 -0.0688,0 -0.15136,0.0826 -0.23392,0.23392 -0.15136,0.30272 -0.90818,1.96771 -1.41731,1.96771 -0.17888,0 -0.24768,-0.16512 -0.24768,-0.45408 0,-1.05954 1.1421,-4.37576 1.1421,-5.10505 z" />
          <path
             id="path900"
             style="font-style:normal;font-variant:normal;font-weight:normal;font-stretch:normal;font-family:'Mission Script';-inkscape-font-specification:'Mission Script';fill:#3f3529;fill-opacity:1;stroke-width:0.43000743"
             d="m 116.21559,101.89938 c -1.45859,0 -2.77957,5.18761 -2.97221,7.98094 -0.49537,0.94946 -1.32099,1.95395 -2.02276,1.95395 -0.38528,0 -0.55041,-0.2752 -0.55041,-0.86689 0,-0.38529 0.055,-0.94946 0.15136,-1.58243 1.48611,-0.35776 2.58693,-4.05927 2.58693,-5.7793 0,-0.86689 -0.34401,-1.0045 -0.55041,-1.05954 -0.1376,-0.11008 -0.33025,-0.17888 -0.53665,-0.17888 -1.23842,0.11008 -1.98147,2.79333 -2.4906,5.54538 -0.19265,0.99073 -0.31649,1.94019 -0.31649,2.72452 0,1.23842 0.31649,2.0778 1.25218,2.0778 0.9357,0 1.88516,-1.08706 2.44933,-2.0778 0,1.23842 0.31648,2.0778 1.25218,2.0778 1.18338,0 2.36676,-1.72003 2.79333,-2.77957 0.0275,-0.0826 0.0413,-0.1376 0.0413,-0.19264 0,-0.0963 -0.0413,-0.15136 -0.0963,-0.15136 -0.0688,0 -0.15137,0.055 -0.22017,0.2064 -0.48161,0.96322 -1.33474,2.03651 -2.06403,2.03651 -0.38529,0 -0.55041,-0.2752 -0.55041,-0.86689 0,-0.41281 0.0688,-1.03202 0.17888,-1.74755 0.0413,0 0.0688,0.0138 0.11008,0.0138 1.58243,0 2.69701,-3.72903 2.69701,-5.69674 0,-0.92193 -0.24769,-1.15586 -0.59169,-1.36226 -0.0963,-0.1376 -0.30273,-0.27521 -0.55041,-0.27521 z m 0.33024,0.56417 c 0.24769,1.73379 -0.66049,5.27017 -1.94019,6.42603 0.45409,-2.61444 1.44483,-6.23338 1.94019,-6.42603 z m -3.86662,0.44033 c 0.2064,1.65123 -0.7293,4.8436 -1.80259,6.09579 0.4128,-2.43557 1.2797,-5.75178 1.80259,-6.09579 z" />
          <path
             id="path902"
             style="font-style:normal;font-variant:normal;font-weight:normal;font-stretch:normal;font-family:'Mission Script';-inkscape-font-specification:'Mission Script';fill:#3f3529;fill-opacity:1;stroke-width:0.43000743"
             d="m 120.37204,105.83481 c -0.16513,-0.1376 -0.48161,-0.23392 -0.78434,-0.23392 -1.44482,0 -2.6282,2.65572 -2.6282,4.706 0,1.30722 0.48161,2.38052 1.66499,2.38052 1.58242,0 2.54564,-1.2109 3.16485,-2.75205 0.0275,-0.0688 0.0413,-0.1376 0.0413,-0.19264 0,-0.0826 -0.0413,-0.1376 -0.0963,-0.1376 -0.0688,0 -0.1376,0.055 -0.22016,0.19264 -0.35777,0.56417 -1.05954,2.05027 -2.36676,2.05027 -0.85314,0 -0.90818,-1.04577 -0.90818,-1.65122 0.17888,0.055 0.35777,0.0826 0.52289,0.0826 1.45858,0 2.44932,-1.85763 2.44932,-3.17862 0,-0.67425 -0.26144,-1.19714 -0.83937,-1.26594 z m -2.10532,3.99047 c 0.16512,-1.65123 1.0733,-3.68774 1.85763,-3.68774 0.20641,0 0.23393,0.23392 0.23393,0.45408 0,1.0733 -1.16962,3.24742 -1.98148,3.24742 -0.0413,0 -0.0688,0 -0.11008,-0.0138 z" />
        </g>
      </g>
    </g>
    <path
       transform="translate(-35.675431,147.55163)"
       d="m 104.68359,77.21875 c -0.90311,0.02258 -1.05078,1.218917 -1.05078,1.941406 0,0.643467 0.25946,1.466768 0.50781,2.132813 0.48543,1.162755 0.7461,1.784464 0.7461,2.484375 0,0.530578 -0.024,0.800781 -0.19336,0.800781 -0.24836,0 -0.24805,-1.162231 -0.24805,-1.421875 l -0.91406,0.134766 c 0,0.756355 -0.0232,2.40625 1.16211,2.40625 0.97084,0 1.11914,-1.186341 1.11914,-1.976563 0,-0.835378 -0.30649,-1.625288 -0.71289,-2.607422 -0.32738,-0.824089 -0.55273,-1.411258 -0.55273,-1.953125 0,-0.485422 0.0227,-0.824218 0.1582,-0.824218 0.18062,0 0.18164,0.915473 0.18164,1.208984 l 0.92578,-0.136719 c 0,-0.688622 -0.0452,-2.212031 -1.12891,-2.189453 z m 8.79688,0 c -0.90311,0.02258 -1.05078,1.218917 -1.05078,1.941406 0,0.643467 0.25945,1.466768 0.50781,2.132813 0.48542,1.162755 0.74609,1.784464 0.74609,2.484375 0,0.530578 -0.0221,0.800781 -0.1914,0.800781 -0.24836,0 -0.25,-1.162231 -0.25,-1.421875 l -0.91407,0.134766 c 0,0.756355 -0.0213,2.40625 1.16407,2.40625 0.97084,0 1.11718,-1.186341 1.11719,-1.976563 0,-0.835378 -0.30454,-1.625288 -0.71094,-2.607422 -0.32738,-0.824089 -0.55469,-1.411258 -0.55469,-1.953125 0,-0.485422 0.0227,-0.824218 0.1582,-0.824218 0.18063,0 0.18164,0.915473 0.18164,1.208984 l 0.92579,-0.136719 c 0,-0.688622 -0.0452,-2.212031 -1.12891,-2.189453 z m -34.117189,0.08984 V 78.5625 h 0.689453 v 7.042969 h 0.935547 V 78.5625 h 0.689453 v -1.253906 z m 2.671875,0 v 6.705078 c 0,0.846667 0.214077,1.683594 1.117188,1.683594 0.846666,0 1.107422,-0.746616 1.107422,-1.683594 v -6.705078 h -0.9375 v 6.705078 c 0,0.270933 -0.03446,0.498047 -0.169922,0.498047 -0.146756,0 -0.179688,-0.181958 -0.179688,-0.498047 v -6.705078 z m 4.113282,0 v 8.296875 h 0.9375 v -3.31836 c 0.338666,-0.01129 0.678089,-0.135942 0.892578,-0.474609 0.248355,-0.395111 0.394531,-1.082553 0.394531,-2.019531 0,-0.936978 -0.146176,-1.59317 -0.394531,-1.988281 -0.248356,-0.383823 -0.508326,-0.496094 -0.88086,-0.496094 z m 2.71289,0 v 8.296875 h 1.873047 v -1.251953 h -0.935547 v -2.28125 h 0.677734 V 80.740234 H 89.798828 V 78.5625 h 0.935547 v -1.253906 z m 2.345703,0 v 6.705078 c 0,0.846667 0.21603,1.683594 1.119141,1.683594 0.846667,0 1.105469,-0.746616 1.105469,-1.683594 v -6.705078 h -0.9375 v 6.705078 c 0,0.270933 -0.0325,0.498047 -0.167969,0.498047 -0.146756,0 -0.181641,-0.181958 -0.181641,-0.498047 v -6.705078 z m 2.699219,0 0.394531,1.976562 c 0.112889,0.620889 0.270354,1.342002 0.394531,1.962891 l -0.800781,4.357422 h 0.914063 l 0.349609,-2.291016 0.349609,2.291016 h 0.916016 l -0.542969,-2.933594 c -0.09031,-0.474133 -0.169454,-0.960984 -0.259765,-1.423828 l 0.791015,-3.939453 h -0.925781 c -0.1016,0.666044 -0.226525,1.343721 -0.328125,2.009765 l -0.326172,-2.009765 z m 4.193359,0 v 8.296875 h 0.9375 v -3.31836 c 0.338667,-0.01129 0.676136,-0.135942 0.890625,-0.474609 0.248356,-0.395111 0.396486,-1.082553 0.396486,-2.019531 0,-0.936978 -0.14813,-1.59317 -0.396486,-1.988281 -0.248355,-0.383823 -0.506373,-0.496094 -0.878906,-0.496094 z m 3.265621,0 -0.75585,8.296875 h 0.91406 l 0.12304,-1.69336 h 0.51954 l 0.125,1.69336 h 0.91406 l -0.7461,-8.296875 z m 5.9336,0 V 78.5625 h 0.68945 v 7.042969 h 0.93555 V 78.5625 h 0.68945 v -1.253906 z m 2.75195,0 v 8.296875 h 1.87305 v -1.251953 h -0.9375 v -2.28125 h 0.67773 v -1.332032 h -0.67773 V 78.5625 h 0.9375 v -1.253906 z m 4.83203,0 V 78.5625 h 0.68946 v 7.042969 h 0.9375 V 78.5625 h 0.6875 v -1.253906 z m -27.796872,1.21875 c 0.1016,0 0.236524,8.22e-4 0.292968,0.125 0.09031,0.2032 0.0918,0.722702 0.0918,1.185547 0,0.462844 -0.0015,0.891643 -0.0918,1.072265 -0.05644,0.112889 -0.202657,0.134766 -0.292968,0.134766 z m 11.951171,0 c 0.1016,0 0.236525,8.22e-4 0.292969,0.125 0.09031,0.2032 0.08984,0.722702 0.08984,1.185547 0,0.462844 4.67e-4,0.891643 -0.08984,1.072265 -0.05644,0.112889 -0.202658,0.134766 -0.292969,0.134766 z m 2.869141,0.802734 0.18164,3.294922 h -0.34961 z"
       id="path1363"
       style="font-style:normal;font-variant:normal;font-weight:normal;font-stretch:normal;font-size:3.52777767px;line-height:125%;font-family:FontAwesome;-inkscape-font-specification:FontAwesome;letter-spacing:0px;word-spacing:0px;fill:#d8424c;fill-opacity:1;stroke:none;stroke-width:0.26458332px;stroke-linecap:butt;stroke-linejoin:miter;stroke-opacity:1"
       xlink:href="#text6124" />
    <g
       id="text1367"
       style="font-style:normal;font-variant:normal;font-weight:normal;font-stretch:normal;font-size:7.76111126px;line-height:125%;font-family:'League Gothic';-inkscape-font-specification:'League Gothic';letter-spacing:0px;word-spacing:0px;fill:#d8424c;fill-opacity:1;stroke:none;stroke-width:0.34076202px;stroke-linecap:butt;stroke-linejoin:miter;stroke-opacity:1"
       transform="scale(1.2879195,0.77644604)"
       aria-label="SAISON 1">
      <path
         id="path905"
         style="font-style:normal;font-variant:normal;font-weight:normal;font-stretch:normal;font-size:7.76111126px;font-family:'League Gothic';-inkscape-font-specification:'League Gothic';fill:#d8424c;fill-opacity:1;stroke-width:0.34076202px"
         d="m 41.149337,366.7843 c 0,-0.18627 -0.0078,-0.39582 -0.06209,-0.5588 -0.05433,-0.15522 -0.1397,-0.26388 -0.271639,-0.26388 -0.217311,0.008 -0.287161,0.23284 -0.287161,0.56656 0,0.19403 0.08537,0.39582 0.20955,0.61313 0.124178,0.21731 0.287161,0.44238 0.450145,0.68298 0.194027,0.28716 0.388055,0.58208 0.535516,0.86924 0.147461,0.28716 0.248356,0.58209 0.248356,0.89253 0,0.3803 -0.06209,0.73731 -0.240595,1.00118 -0.178505,0.26388 -0.465666,0.43463 -0.923572,0.43463 -0.535517,0 -0.8382,-0.20179 -1.008944,-0.51224 -0.170745,-0.31044 -0.20955,-0.72178 -0.20955,-1.14864 l 0.822677,-0.0776 c 0,0.24059 0.0078,0.48119 0.06985,0.65969 0.05433,0.18627 0.147462,0.31045 0.325967,0.31045 0.248356,0 0.341489,-0.26388 0.341489,-0.62865 0,-0.18627 -0.09313,-0.40358 -0.217311,-0.62865 -0.06985,-0.10866 -0.1397,-0.22508 -0.217311,-0.34149 -0.162984,-0.23284 -0.341489,-0.49671 -0.527756,-0.78387 -0.186266,-0.28717 -0.325966,-0.58209 -0.411339,-0.88477 -0.04657,-0.14746 -0.06985,-0.30268 -0.06985,-0.45791 0,-0.31044 0.06985,-0.64417 0.248356,-0.90029 0.178505,-0.24835 0.450144,-0.42686 0.845961,-0.43462 0.504472,-0.008 0.799394,0.20179 0.962378,0.50447 0.162983,0.31045 0.20955,0.69074 0.20955,1.00895 z" />
      <path
         id="path907"
         style="font-style:normal;font-variant:normal;font-weight:normal;font-stretch:normal;font-size:7.76111126px;font-family:'League Gothic';-inkscape-font-specification:'League Gothic';fill:#d8424c;fill-opacity:1;stroke-width:0.34076202px"
         d="m 42.195147,370.95978 0.861483,-5.70442 h 1.024467 l 0.861483,5.70442 h -0.814917 l -0.155222,-1.16417 h -0.807155 l -0.155223,1.16417 z m 1.420283,-3.84951 -0.02328,-0.14746 h -0.04657 l -0.02328,0.14746 -0.240595,1.80057 h 0.574323 z" />
      <path
         id="path909"
         style="font-style:normal;font-variant:normal;font-weight:normal;font-stretch:normal;font-size:7.76111126px;font-family:'League Gothic';-inkscape-font-specification:'League Gothic';fill:#d8424c;fill-opacity:1;stroke-width:0.34076202px"
         d="m 45.323238,365.25536 h 0.8382 v 5.70442 h -0.8382 z" />
      <path
         id="path911"
         style="font-style:normal;font-variant:normal;font-weight:normal;font-stretch:normal;font-size:7.76111126px;font-family:'League Gothic';-inkscape-font-specification:'League Gothic';fill:#d8424c;fill-opacity:1;stroke-width:0.34076202px"
         d="m 48.167686,366.7843 c 0,-0.18627 -0.0078,-0.39582 -0.06209,-0.5588 -0.05433,-0.15522 -0.1397,-0.26388 -0.271639,-0.26388 -0.217311,0.008 -0.287161,0.23284 -0.287161,0.56656 0,0.19403 0.08537,0.39582 0.20955,0.61313 0.124178,0.21731 0.287161,0.44238 0.450144,0.68298 0.194028,0.28716 0.388056,0.58208 0.535517,0.86924 0.147461,0.28716 0.248355,0.58209 0.248355,0.89253 0,0.3803 -0.06209,0.73731 -0.240594,1.00118 -0.178506,0.26388 -0.465667,0.43463 -0.923572,0.43463 -0.535517,0 -0.8382,-0.20179 -1.008945,-0.51224 -0.170744,-0.31044 -0.20955,-0.72178 -0.20955,-1.14864 l 0.822678,-0.0776 c 0,0.24059 0.0078,0.48119 0.06985,0.65969 0.05433,0.18627 0.147461,0.31045 0.325967,0.31045 0.248355,0 0.341489,-0.26388 0.341489,-0.62865 0,-0.18627 -0.09313,-0.40358 -0.217311,-0.62865 -0.06985,-0.10866 -0.1397,-0.22508 -0.217312,-0.34149 -0.162983,-0.23284 -0.341488,-0.49671 -0.527755,-0.78387 -0.186267,-0.28717 -0.325967,-0.58209 -0.411339,-0.88477 -0.04657,-0.14746 -0.06985,-0.30268 -0.06985,-0.45791 0,-0.31044 0.06985,-0.64417 0.248356,-0.90029 0.178505,-0.24835 0.450144,-0.42686 0.845961,-0.43462 0.504472,-0.008 0.799394,0.20179 0.962377,0.50447 0.162984,0.31045 0.20955,0.69074 0.20955,1.00895 z" />
      <path
         id="path913"
         style="font-style:normal;font-variant:normal;font-weight:normal;font-stretch:normal;font-size:7.76111126px;font-family:'League Gothic';-inkscape-font-specification:'League Gothic';fill:#d8424c;fill-opacity:1;stroke-width:0.34076202px"
         d="m 51.627201,369.78785 c -0.0078,0.23283 -0.05433,0.44238 -0.1397,0.62089 -0.06985,0.15522 -0.178506,0.30268 -0.333728,0.4191 -0.155222,0.12418 -0.364772,0.19403 -0.644172,0.19403 -0.2794,0 -0.496711,-0.0698 -0.651933,-0.19403 -0.155223,-0.11642 -0.256117,-0.26388 -0.325967,-0.4191 -0.08537,-0.17851 -0.131939,-0.38806 -0.1397,-0.62089 v -3.36056 c 0.0078,-0.22507 0.05433,-0.43462 0.1397,-0.61313 0.06985,-0.15522 0.170744,-0.31044 0.325967,-0.42686 0.155222,-0.11642 0.372533,-0.19403 0.651933,-0.19403 0.2794,0 0.48895,0.0776 0.644172,0.19403 0.155222,0.11642 0.263878,0.27164 0.333728,0.42686 0.08537,0.17851 0.131939,0.38806 0.1397,0.61313 z m -0.8382,-3.36056 c 0,-0.15522 -0.03104,-0.26388 -0.108656,-0.35701 -0.03881,-0.0388 -0.100894,-0.0621 -0.170744,-0.0621 -0.147461,0 -0.217311,0.10865 -0.248356,0.20955 -0.02328,0.0621 -0.03104,0.13194 -0.03104,0.20955 v 3.36056 c 0,0.16298 0.03881,0.27164 0.116417,0.35701 0.03881,0.0388 0.09313,0.0621 0.162983,0.0621 0.147461,0 0.217311,-0.0931 0.248356,-0.20955 0.02328,-0.0543 0.03104,-0.12418 0.03104,-0.20955 z" />
      <path
         id="path915"
         style="font-style:normal;font-variant:normal;font-weight:normal;font-stretch:normal;font-size:7.76111126px;font-family:'League Gothic';-inkscape-font-specification:'League Gothic';fill:#d8424c;fill-opacity:1;stroke-width:0.34076202px"
         d="m 53.07477,367.98727 -0.06985,-0.26388 h -0.04657 v 3.23639 h -0.76835 v -5.70442 h 0.745067 l 0.814916,2.97251 0.06985,0.26387 h 0.04657 v -3.23638 h 0.76835 v 5.70442 h -0.745067 z" />
      <path
         id="path917"
         style="font-style:normal;font-variant:normal;font-weight:normal;font-stretch:normal;font-size:7.76111126px;font-family:'League Gothic';-inkscape-font-specification:'League Gothic';fill:#d8424c;fill-opacity:1;stroke-width:0.34076202px"
         d="m 56.232208,366.48938 v -0.53552 c 0.34925,-0.0699 0.5588,-0.24835 0.706261,-0.40358 0.07761,-0.0931 0.1397,-0.19402 0.186266,-0.29492 h 0.504473 v 5.70442 h -0.8382 v -4.4704 z" />
    </g>
    <path
       style="fill:#3f3529;fill-opacity:1;stroke-width:0.05260178"
       id="path1369"
       d="m 41.301949,264.11842 c 0.26302,0.26299 0.2525,0.68379 -0.0108,0.95727 -0.27352,0.26301 -0.69427,0.26301 -0.95729,-0.0109 l -1.69377,-1.78845 -1.57801,1.90413 c -0.14727,0.15786 -0.41029,0.15786 -0.5681,0 l -0.41029,-0.42084 c -0.15781,-0.14715 -0.15781,-0.41024 0,-0.56804 l 1.80946,-1.68325 -0.87319,-0.84163 c -0.28405,-0.27355 -0.45243,-0.35769 -0.68383,-0.28404 -0.23145,0.0841 -0.55758,0.0841 -0.86261,-0.11578 -0.65226,-0.42082 -0.61024,-1.20984 -0.61024,-1.20984 l 0.0527,-0.0841 c 0,0 0.58914,0.37875 0.66279,0.42083 0.0947,0.0738 0.4208,0.22091 0.71543,-0.23144 0.30509,-0.45239 0.0527,-0.73644 -0.0316,-0.78903 -0.0737,-0.042 -0.66279,-0.43134 -0.66279,-0.43134 l 0.0527,-0.0841 c 0,0 0.68383,-0.34717 1.32552,0.0315 0,0.0211 0.15781,0.11577 0.22093,0.16839 0.41029,0.36821 0.41029,0.7785 0.33664,1.11515 -0.0632,0.3051 0,0.4103 0.24198,0.67331 l 0.87318,0.87318 1.04153,-1.06255 0.75741,0.77851 -0.9994,1.02049 z m 1.56753,-2.66167 -0.56809,0.57862 c -0.11576,0.11578 -0.29462,0.11578 -0.42082,0 l -0.12618,-0.1368 c -0.0947,-0.0841 -0.13676,-0.24195 -0.0841,-0.31561 0.0947,-0.0633 0.0632,-0.25247 -0.11576,-0.42079 -0.25249,-0.26302 -0.57861,-0.27353 -0.70481,-0.1368 -0.0527,0.0422 -0.22093,0.22094 -0.22093,0.22094 l -0.7785,-0.76799 0.12616,-0.12627 c 0,0 0.0315,-0.0314 0.0947,-0.10514 0.24199,-0.24197 -0.0105,-0.5155 -0.0105,-0.5155 -0.68382,-0.6733 -1.64112,-0.66278 -1.64112,-0.66278 l -0.0105,-0.24196 c 1.92523,-0.49446 2.65108,0.34717 2.91411,0.61017 0.24195,0.24197 0.49439,0.49443 0.55757,0.55759 0.13678,0.1368 0,0.526 0.19987,0.74694 0.0947,0.0946 0.22094,0.13678 0.31562,0.13678 0.10522,-0.0946 0.27353,-0.0633 0.35769,0.0314 l 0.11576,0.12627 c 0.11564,0.11578 0.11564,0.29458 -5e-5,0.42082 z m -1.80944,2.88252 c -0.13682,-0.1368 -0.3577,-0.1368 -0.50503,0 -0.12616,0.13679 -0.12616,0.36823 0,0.49446 0.14734,0.1368 0.36822,0.15787 0.50503,0.0109 0.1367,-0.12627 0.1367,-0.36822 0,-0.50498 z" />
    <g
       transform="matrix(0.00708051,0,0,0.00708051,82.349579,258.28091)"
       id="g1375"
       style="fill:#3f3529;fill-opacity:1">
      <g
         transform="matrix(0.1,0,0,-0.1,0,511)"
         id="g1373"
         style="fill:#3f3529;fill-opacity:1">
        <path
           d="m 4286.3,4976.4 c -39.3,-21.8 -85.1,-72 -104.8,-106.9 -72,-141.9 -665.7,-1704.6 -711.5,-1879.2 -39.3,-141.9 -50.2,-246.6 -52.4,-438.7 0,-246.6 2.2,-253.2 80.8,-414.7 146.2,-294.6 430,-497.6 803.2,-578.4 185.5,-39.3 467.1,-30.5 637.3,21.8 196.4,61.1 641.7,259.7 1283.4,569.7 403.8,196.4 718.1,336.1 840.3,371.1 456.2,131 849.1,30.5 1036.8,-266.3 159.3,-251 126.6,-530.4 -102.6,-868.7 C 7850.6,1170 7772,982.3 7739.3,770.6 L 7724,676.8 4175,672.2 623.9,665.7 501.7,608.9 C 346.7,536.9 228.9,419 156.8,264.1 L 100,141.9 v -2206.6 -2206.7 l 76.4,-150.6 c 54.6,-107 106.9,-172.4 185.5,-231.4 213.9,-163.7 -155,-152.8 4675.2,-144 l 4339.1,6.6 120,56.7 c 168.1,78.6 270.7,174.6 342.7,320.8 l 61.1,124.4 v 2237.2 2237.2 l -52.4,104.8 c -72,146.2 -224.8,290.3 -366.7,342.7 -104.8,39.3 -170.2,43.7 -617.7,43.7 -462.7,0 -502,2.2 -502,39.3 0,48 98.2,259.7 161.5,342.7 89.5,122.2 163.7,266.3 224.8,438.7 50.2,148.4 58.9,209.5 58.9,423.4 2.2,207.3 -6.6,277.2 -48,397.2 -176.8,512.9 -718.1,888.3 -1283.4,890.5 -185.5,0 -484.5,-54.6 -718.1,-133.1 -107,-37.1 -486.7,-207.4 -840.3,-379.8 -353.6,-172.4 -750.8,-360.1 -884,-416.9 -233.5,-102.6 -246.6,-104.8 -458.3,-107 -185.5,0 -233.5,6.6 -323,52.4 -56.7,26.2 -131,85.1 -163.7,128.8 -52.4,67.7 -58.9,96 -54.6,220.4 4.4,189.9 58.9,357.9 414.7,1279 163.7,421.3 301.2,798.8 305.6,842.5 13.1,93.8 -30.6,187.7 -124.4,268.5 -87.3,72 -237.9,78.6 -342.6,13.1 z M 2354.6,-550 c 37.1,-37.1 37.1,-608.9 0,-646 -37.1,-37.1 -587.1,-37.1 -624.2,0 -37.1,37.1 -37.1,609 0,646 17.5,17.5 117.9,26.2 312.1,26.2 194.2,0 294.7,-8.8 312.1,-26.2 z m 1178.7,0 c 37.1,-37.1 37.1,-608.9 0,-646 -37.1,-37.1 -587.1,-37.1 -624.2,0 -17.5,17.5 -26.2,122.2 -26.2,323 0,200.8 8.7,305.6 26.2,323 17.5,17.5 117.9,26.2 312.1,26.2 194.2,0 294.6,-8.8 312.1,-26.2 z m 1191.7,-8.8 c 28.4,-26.2 34.9,-87.3 34.9,-314.3 0,-227 -6.5,-288.1 -34.9,-314.3 -26.2,-28.4 -87.3,-34.9 -314.3,-34.9 -227,0 -288.1,6.5 -314.3,34.9 -50.2,50.2 -50.2,578.4 0,628.6 50.2,50.2 578.4,50.2 628.6,0 z m 1187.3,8.8 c 37.1,-37.1 37.1,-608.9 0,-646 -37.1,-37.1 -587.1,-37.1 -624.2,0 -37.1,37.1 -37.1,609 0,646 17.5,17.5 117.9,26.2 312.1,26.2 194.2,0 294.7,-8.8 312.1,-26.2 z m 1193.9,-26.2 c 48,-72 34.9,-595.9 -13.1,-626.4 -43.7,-26.2 -558.8,-24 -611.1,2.2 -37.1,21.8 -41.5,48 -41.5,323 0,205.2 8.8,310 26.2,327.4 17.5,17.5 120,26.2 316.5,26.2 281.6,0 290.3,-2.2 323,-52.4 z m 1185.2,26.2 c 17.5,-17.4 26.2,-122.2 26.2,-327.4 0,-275 -4.4,-301.2 -41.5,-323 -54.6,-28.4 -569.6,-28.4 -613.3,0 -26.2,15.3 -32.7,78.6 -32.7,327.4 0,248.8 6.5,312.1 32.7,327.4 50.2,32.7 595.9,28.3 628.6,-4.4 z M 2376.5,-2038.6 c 4.4,-207.4 -2.2,-312.1 -19.6,-331.8 -19.6,-26.2 -89.5,-30.5 -333.9,-26.2 l -307.7,6.6 -6.5,305.6 c -2.2,165.9 0,316.5 4.4,331.7 8.7,24 82.9,28.4 334,24 l 323,-6.5 z m 1172.1,-24 V -2390 l -303.4,-6.6 c -203,-4.3 -312.1,2.2 -331.8,19.6 -24,19.7 -30.6,96 -30.6,325.2 0,163.7 6.5,305.6 15.3,314.3 8.7,6.5 157.1,10.9 331.8,8.7 l 318.7,-6.5 z m 1185.1,312.1 c 37.1,-37.1 37.1,-587.1 0,-624.2 -17.5,-17.5 -122.2,-26.2 -327.4,-26.2 -275,0 -301.2,4.3 -323,41.5 -32.7,61.1 -28.4,576.2 4.4,608.9 17.5,17.5 122.2,26.2 323,26.2 200.8,0 305.6,-8.7 323,-26.2 z m 1200.5,-288.1 c 4.4,-207.4 -2.2,-312.1 -19.6,-331.8 -19.6,-26.2 -89.5,-30.5 -334,-26.2 l -307.7,6.6 -6.5,305.6 c -2.2,165.9 0,316.5 4.4,331.7 8.7,24 82.9,28.4 333.9,24 l 323,-6.5 z m 1178.6,277.2 c 24,-48 21.8,-574 -2.2,-611.1 -24,-39.3 -606.8,-39.3 -643.9,-2.2 -28.4,28.4 -39.3,550 -13.1,615.5 10.9,30.5 61.1,34.9 327.4,34.9 275,0 314.3,-4.4 331.8,-37.1 z m 1191.7,2.2 c 26.2,-65.5 15.3,-587.1 -13.1,-615.5 -17.5,-17.5 -122.2,-26.2 -327.4,-26.2 -264.1,0 -301.2,4.3 -318.7,39.3 -24,45.8 -21.8,571.9 2.2,611.1 13.1,19.7 104.8,26.2 331.8,26.2 264.1,0 314.3,-4.4 325.2,-34.9 z M 2356.8,-2933.5 c 17.5,-19.6 24,-128.8 19.6,-331.7 l -6.5,-303.4 h -327.4 -327.4 l -6.5,305.6 c -2.2,165.9 0,316.5 4.4,331.7 17.4,41.5 608.9,41.5 643.8,-2.2 z m 4760.3,-10.9 c 32.7,-63.3 28.4,-552.2 -4.4,-598 -26.2,-34.9 -172.4,-37.1 -2112.8,-32.7 l -2084.4,6.6 -6.5,303.4 c -4.4,203 2.2,312.1 19.6,331.7 21.8,26.2 355.8,30.6 2095.3,30.6 2023.4,-0.1 2071.4,-0.1 2093.2,-41.6 z m 1174.3,15.3 c 28.4,-28.3 39.3,-550 13.1,-615.5 -10.9,-30.6 -61.1,-34.9 -327.4,-34.9 h -314.3 l -24,58.9 c -24,63.3 -15.3,547.8 10.9,591.5 21.8,37.1 604.6,37.1 641.7,0 z"
           id="path1371"
           style="fill:#3f3529;fill-opacity:1" />
      </g>
    </g>
    <g
       id="text1379"
       style="font-style:normal;font-variant:normal;font-weight:normal;font-stretch:normal;font-size:7.05555534px;line-height:125%;font-family:'Wisdom Script';-inkscape-font-specification:'Wisdom Script';letter-spacing:0px;word-spacing:0px;fill:#3f3529;fill-opacity:1;stroke:none;stroke-width:0.26458332px;stroke-linecap:butt;stroke-linejoin:miter;stroke-opacity:1"
       aria-label="des artisans">
      <path
         id="path920"
         style="font-style:normal;font-variant:normal;font-weight:normal;font-stretch:normal;font-size:7.05555534px;font-family:Pacifico;-inkscape-font-specification:Pacifico;fill:#3f3529;fill-opacity:1;stroke-width:0.26458332px"
         d="m 46.888321,262.66336 q -0.227376,0.11024 -0.406521,0.29283 -0.1757,0.17915 -0.296278,0.3893 -0.117133,0.21015 -0.179145,0.42375 -0.06201,0.21359 -0.06201,0.38585 0,0.0689 0.01378,0.1378 0.01723,0.0689 0.05857,0.12402 0.04134,0.0551 0.117133,0.0896 0.07579,0.0344 0.196371,0.0344 0.06201,0 0.120578,-0.031 0.06201,-0.031 0.117133,-0.0792 0.05512,-0.0517 0.103353,-0.11368 0.05168,-0.0655 0.09302,-0.13436 0.09646,-0.15848 0.1757,-0.35829 -0.01034,-0.0482 -0.01723,-0.15159 -0.0069,-0.10679 -0.01034,-0.23426 -0.0034,-0.13092 -0.0069,-0.26872 -0.0034,-0.1378 -0.0069,-0.25149 0,-0.11369 -0.0034,-0.18604 -0.0034,-0.0723 -0.0069,-0.0689 z m 2.370226,1.92925 q -0.244602,0.18948 -0.482313,0.33762 -0.09991,0.062 -0.210151,0.12403 -0.110243,0.0586 -0.217041,0.10679 -0.106798,0.0448 -0.210151,0.0758 -0.09991,0.0276 -0.186035,0.0276 -0.04823,0 -0.144694,-0.0207 -0.09302,-0.0207 -0.206706,-0.0827 -0.110243,-0.0654 -0.223931,-0.18603 -0.110243,-0.12058 -0.192926,-0.32039 -0.127468,0.12402 -0.272162,0.23771 -0.141249,0.11024 -0.296278,0.19292 -0.151584,0.0827 -0.310059,0.13436 -0.155029,0.0482 -0.313504,0.0482 -0.223931,0 -0.389295,-0.0965 -0.16192,-0.0965 -0.272163,-0.25494 -0.106798,-0.16192 -0.161919,-0.36518 -0.05168,-0.20326 -0.05168,-0.4203 0,-0.22048 0.05512,-0.44442 0.05857,-0.22737 0.165364,-0.43752 0.110243,-0.2136 0.265273,-0.39963 0.155029,-0.18948 0.351399,-0.33418 0.196371,-0.14814 0.427192,-0.2446 0.230822,-0.0965 0.492649,-0.12058 0.01033,-0.44097 0.07924,-0.87161 0.0689,-0.43063 0.18259,-0.81993 0.113688,-0.3893 0.265272,-0.72003 0.15503,-0.33072 0.33762,-0.57188 0.18259,-0.24116 0.389296,-0.37552 0.206705,-0.1378 0.427191,-0.1378 0.16192,0 0.275608,0.0861 0.113688,0.0827 0.18259,0.22393 0.07235,0.1378 0.103353,0.32384 0.03101,0.18259 0.03101,0.37896 0,0.12058 -0.01034,0.24804 -0.04479,0.48576 -0.165365,0.91985 -0.120578,0.43063 -0.282498,0.8406 -0.161919,0.40996 -0.3514,0.81304 -0.18948,0.40308 -0.368625,0.83716 -0.01723,0.0482 -0.03445,0.11713 -0.01723,0.0689 -0.03445,0.15159 -0.01378,0.0792 -0.02412,0.16536 -0.01034,0.0827 -0.01034,0.16192 0,0.0999 0.01034,0.18948 0.01378,0.0896 0.04134,0.16192 0.02756,0.0689 0.07235,0.11024 0.04823,0.0413 0.117133,0.0413 0.06546,0 0.141249,-0.0241 0.07924,-0.0276 0.165365,-0.0724 0.08613,-0.0448 0.172254,-0.0999 0.08957,-0.0586 0.172255,-0.11713 0.18948,-0.1378 0.396186,-0.3135 z m -0.751031,-4.42694 q 0.02067,-0.24116 0.02067,-0.38241 0,-0.18603 -0.03445,-0.25838 -0.03101,-0.0723 -0.09302,-0.0723 -0.110243,0 -0.199815,0.14125 -0.08957,0.1378 -0.158475,0.35485 -0.0689,0.21704 -0.120578,0.47886 -0.05168,0.26183 -0.08613,0.50643 -0.03445,0.2446 -0.05512,0.44098 -0.02067,0.19637 -0.02756,0.27905 -0.01378,0.16881 -0.02412,0.32728 -0.0069,0.15503 -0.01034,0.28594 -0.0034,0.12747 -0.0034,0.22394 0,0.0965 0,0.14814 v 0.0344 q 0.196371,-0.44787 0.361735,-0.89228 0.0689,-0.18948 0.137804,-0.39619 0.07235,-0.21015 0.130914,-0.4203 0.05857,-0.21015 0.09991,-0.41341 0.04479,-0.20326 0.06201,-0.38585 z" />
      <path
         id="path922"
         style="font-style:normal;font-variant:normal;font-weight:normal;font-stretch:normal;font-size:7.05555534px;font-family:Pacifico;-inkscape-font-specification:Pacifico;fill:#3f3529;fill-opacity:1;stroke-width:0.26458332px"
         d="m 50.230064,265.26785 q -0.323839,0 -0.568441,-0.11713 -0.241157,-0.11713 -0.403076,-0.3135 -0.16192,-0.19982 -0.244602,-0.4582 -0.07924,-0.26183 -0.07924,-0.54777 0,-0.19293 0.0379,-0.40652 0.0379,-0.21704 0.113688,-0.42375 0.07924,-0.20671 0.196371,-0.39274 0.117133,-0.18948 0.272162,-0.33073 0.158474,-0.14469 0.3514,-0.22738 0.19637,-0.0861 0.434082,-0.0861 0.192925,0 0.35829,0.062 0.165364,0.062 0.285943,0.1757 0.124023,0.11024 0.192925,0.26872 0.0689,0.15847 0.0689,0.35484 0,0.2136 -0.106798,0.42719 -0.103353,0.2136 -0.289388,0.40308 -0.186035,0.18948 -0.444417,0.33762 -0.254937,0.14814 -0.554661,0.23082 0.05168,0.093 0.09991,0.15503 0.05168,0.062 0.103353,0.0965 0.05168,0.0344 0.106798,0.0482 0.05857,0.0138 0.124023,0.0138 0.206706,0 0.434082,-0.0827 0.230822,-0.0827 0.447863,-0.20671 0.217041,-0.12402 0.409966,-0.26871 0.192925,-0.14814 0.327284,-0.27906 l 0.444417,0.46165 q -0.303168,0.3135 -0.644232,0.55466 -0.14814,0.10335 -0.320394,0.20326 -0.16881,0.0999 -0.35829,0.17914 -0.186035,0.0758 -0.389296,0.12403 -0.199816,0.0448 -0.406521,0.0448 z m -0.458198,-1.61919 q 0.124023,0 0.268717,-0.062 0.14814,-0.0655 0.272163,-0.16537 0.127469,-0.0999 0.213596,-0.21704 0.08613,-0.11713 0.08613,-0.22738 0,-0.15502 -0.05857,-0.25493 -0.05512,-0.0999 -0.137804,-0.0999 -0.148139,0 -0.254937,0.0551 -0.103353,0.0551 -0.1757,0.1447 -0.0689,0.0861 -0.113688,0.19981 -0.04134,0.11024 -0.06546,0.22393 -0.02067,0.11369 -0.02756,0.22049 -0.0069,0.1068 -0.0069,0.18259 z" />
      <path
         id="path924"
         style="font-style:normal;font-variant:normal;font-weight:normal;font-stretch:normal;font-size:7.05555534px;font-family:Pacifico;-inkscape-font-specification:Pacifico;fill:#3f3529;fill-opacity:1;stroke-width:0.26458332px"
         d="m 51.670114,263.94494 q 0.192925,-0.16537 0.313503,-0.27561 0.120579,-0.11024 0.206706,-0.19982 0.08613,-0.093 0.155029,-0.18603 0.07235,-0.093 0.16881,-0.22049 0.09646,-0.12747 0.234267,-0.31006 0.137803,-0.18603 0.358289,-0.46164 0.04479,-0.062 0.09991,-0.12058 0.05512,-0.0586 0.120579,-0.10335 0.0689,-0.0482 0.148139,-0.0758 0.08268,-0.031 0.18259,-0.031 0.165364,0 0.254937,0.0379 0.08957,0.0344 0.130913,0.0861 0.04134,0.0517 0.04823,0.11025 0.0069,0.0551 0.0069,0.0965 0,0.0827 -0.06546,0.18259 -0.06546,0.0999 -0.144694,0.19293 -0.07924,0.093 -0.151584,0.17225 -0.0689,0.0758 -0.07924,0.11369 0,0.1068 0.01378,0.19637 0.01723,0.0861 0.04134,0.17225 0.02756,0.0827 0.05512,0.17915 0.02756,0.093 0.05168,0.21704 0.02756,0.12402 0.04134,0.28594 0.01723,0.16192 0.01723,0.38241 0.124023,-0.0827 0.265272,-0.14814 0.144694,-0.0689 0.299723,-0.14125 0.15503,-0.0723 0.316949,-0.15847 0.165365,-0.0896 0.330729,-0.2136 l 0.0034,0.7717 q -0.213596,0.16537 -0.496094,0.31006 -0.279053,0.14469 -0.589112,0.25494 -0.306613,0.11024 -0.623562,0.1757 -0.313503,0.062 -0.596001,0.062 -0.203261,0 -0.378961,-0.0379 -0.1757,-0.0379 -0.310058,-0.11713 -0.130914,-0.0827 -0.213596,-0.2136 -0.08268,-0.13091 -0.09991,-0.31695 -0.04823,0.0103 -0.09646,0.0138 -0.04479,0.003 -0.08957,0.003 -0.05512,0 -0.103353,-0.003 -0.04823,-0.003 -0.08268,-0.0241 -0.03445,-0.0241 -0.05512,-0.0724 -0.02067,-0.0517 -0.02067,-0.14469 0,-0.0827 0.04134,-0.15159 0.04134,-0.0723 0.09646,-0.12746 0.05512,-0.0551 0.110243,-0.0965 0.05512,-0.0413 0.08268,-0.0654 z m 0.440972,0.44097 q 0.04134,0 0.08957,0.0517 0.05168,0.0517 0.117134,0.11369 0.06546,0.062 0.151584,0.11369 0.08613,0.0517 0.19637,0.0517 0.134359,0 0.220486,-0.0448 0.08957,-0.0448 0.141249,-0.11713 0.05168,-0.0758 0.07235,-0.17226 0.02067,-0.0999 0.02067,-0.2067 0,-0.093 -0.01378,-0.18948 -0.01033,-0.0965 -0.03101,-0.18259 -0.01723,-0.0896 -0.04134,-0.16537 -0.02067,-0.0792 -0.0379,-0.13436 z" />
      <path
         id="path926"
         style="font-style:normal;font-variant:normal;font-weight:normal;font-stretch:normal;font-size:7.05555534px;font-family:Pacifico;-inkscape-font-specification:Pacifico;fill:#3f3529;fill-opacity:1;stroke-width:0.26458332px"
         d="m 60.234621,264.4238 q -0.07924,0.11025 -0.213596,0.25839 -0.130914,0.14814 -0.296278,0.28249 -0.165365,0.13436 -0.354845,0.22738 -0.18948,0.093 -0.378961,0.093 -0.227376,0 -0.37896,-0.1447 -0.151584,-0.14813 -0.261827,-0.42719 -0.08268,0.0965 -0.203261,0.19637 -0.120578,0.0999 -0.265272,0.18259 -0.141249,0.0792 -0.296279,0.13092 -0.155029,0.0517 -0.310058,0.0517 -0.165365,0 -0.323839,-0.0654 -0.155029,-0.0689 -0.275608,-0.19293 -0.120578,-0.12747 -0.192925,-0.30661 -0.07235,-0.18259 -0.07235,-0.40997 0,-0.25838 0.07235,-0.53054 0.07235,-0.27217 0.199815,-0.53055 0.127469,-0.26183 0.299724,-0.49265 0.1757,-0.23082 0.382405,-0.40307 0.206706,-0.17226 0.434082,-0.27217 0.230822,-0.10335 0.468533,-0.10335 0.07924,0 0.124024,0.031 0.04479,0.031 0.07235,0.0723 0.03101,0.0379 0.05857,0.0758 0.02756,0.0379 0.0689,0.0551 0.04134,0.0172 0.08268,0.0241 0.04479,0.003 0.08957,0.003 0.0379,0 0.07579,0 0.04134,-0.003 0.07924,-0.003 0.05168,0 0.09646,0.0103 0.04479,0.0103 0.07924,0.0448 0.03445,0.0344 0.05168,0.0965 0.02067,0.062 0.02067,0.16881 0,0.16536 -0.03445,0.36862 -0.03445,0.19982 -0.07579,0.41341 -0.04134,0.21015 -0.07579,0.42375 -0.03445,0.21015 -0.03445,0.39963 0,0.16192 0.02756,0.25494 0.03101,0.0896 0.127468,0.0896 0.07235,0 0.151585,-0.0344 0.07924,-0.0379 0.158474,-0.0965 0.08268,-0.0586 0.161919,-0.13092 0.08268,-0.0758 0.15503,-0.15503 0.168809,-0.18603 0.341064,-0.4203 z m -2.942112,-0.27216 q 0,0.0861 0.01034,0.16881 0.01378,0.0792 0.04479,0.1447 0.03101,0.062 0.08268,0.10335 0.05168,0.0379 0.130914,0.0379 0.127468,0 0.230821,-0.11024 0.103353,-0.11024 0.179145,-0.26527 0.07579,-0.15503 0.120578,-0.32039 0.04823,-0.16537 0.06201,-0.27561 l 0.210151,-1.01286 q -0.141249,0 -0.275608,0.0723 -0.134358,0.0689 -0.254937,0.18948 -0.117133,0.12058 -0.217041,0.2756 -0.09991,0.15503 -0.172255,0.32729 -0.07235,0.16881 -0.113688,0.34106 -0.0379,0.17226 -0.0379,0.32384 z" />
      <path
         id="path928"
         style="font-style:normal;font-variant:normal;font-weight:normal;font-stretch:normal;font-size:7.05555534px;font-family:Pacifico;-inkscape-font-specification:Pacifico;fill:#3f3529;fill-opacity:1;stroke-width:0.26458332px"
         d="m 59.828099,264.54783 q 0,-0.15159 0.01723,-0.3514 0.01722,-0.20326 0.04479,-0.42719 0.03101,-0.22393 0.0689,-0.45476 0.04134,-0.23426 0.08613,-0.44441 0.04479,-0.21015 0.08957,-0.38585 0.04479,-0.1757 0.08957,-0.28939 0.02756,-0.0758 0.05512,-0.12058 0.02756,-0.0448 0.06201,-0.0689 0.0379,-0.0276 0.08957,-0.0345 0.05512,-0.0103 0.134359,-0.0103 0.08957,0 0.137803,0.0103 0.05168,0.007 0.07579,0.0413 0.02412,0.031 0.02756,0.093 0.0069,0.062 0.0069,0.1688 0,0.12747 0,0.31006 0,0.17915 0.0069,0.35485 h 0.0379 q 0.0689,-0.13781 0.155029,-0.30662 0.08613,-0.17225 0.199815,-0.32039 0.113689,-0.14814 0.258383,-0.24805 0.144694,-0.10335 0.334174,-0.10335 0.06546,0 0.127468,0.0241 0.06201,0.0207 0.106798,0.062 0.04823,0.0413 0.07579,0.10335 0.02756,0.0586 0.02756,0.13436 0,0.0586 -0.01722,0.16536 -0.01723,0.10336 -0.0379,0.22049 -0.02067,0.11369 -0.0379,0.22393 -0.01723,0.1068 -0.01723,0.17915 0,0.12402 0.02412,0.2067 0.02412,0.0827 0.06201,0.13436 0.04134,0.0482 0.08957,0.0689 0.05168,0.0207 0.106798,0.0207 0.155029,0 0.320394,-0.0689 0.165364,-0.0689 0.303168,-0.15503 0.16192,-0.0999 0.316949,-0.22737 l -0.05168,0.80615 q -0.08957,0.0586 -0.203261,0.13091 -0.113688,0.0724 -0.244602,0.13781 -0.127468,0.062 -0.268717,0.10679 -0.137804,0.0413 -0.282498,0.0413 -0.258382,0 -0.416857,-0.10336 -0.158474,-0.1068 -0.251492,-0.27561 -0.09302,-0.17225 -0.137803,-0.3824 -0.04479,-0.2136 -0.07235,-0.43064 h -0.05512 l -0.616672,1.7191 q -0.04823,0.13436 -0.09302,0.22394 -0.04134,0.0861 -0.08613,0.14125 -0.04479,0.0551 -0.09646,0.0792 -0.05168,0.0207 -0.113688,0.0207 -0.141249,0 -0.227376,-0.0586 -0.08613,-0.062 -0.134359,-0.16192 -0.04479,-0.10336 -0.06201,-0.23082 -0.01378,-0.13092 -0.01378,-0.26872 z" />
      <path
         id="path930"
         style="font-style:normal;font-variant:normal;font-weight:normal;font-stretch:normal;font-size:7.05555534px;font-family:Pacifico;-inkscape-font-specification:Pacifico;fill:#3f3529;fill-opacity:1;stroke-width:0.26458332px"
         d="m 65.670981,264.49615 q -0.330729,0.19293 -0.589111,0.33762 -0.258382,0.14469 -0.461643,0.24116 -0.199816,0.0965 -0.35829,0.14469 -0.155029,0.0482 -0.282498,0.0482 -0.261827,0 -0.461643,-0.15847 -0.199815,-0.15848 -0.334174,-0.45475 -0.134359,-0.29973 -0.203261,-0.72347 -0.06546,-0.42375 -0.06546,-0.9543 0,-0.2067 0.01723,-0.44097 0.01723,-0.23426 0.04823,-0.46509 -0.103352,-0.0138 -0.161919,-0.0241 -0.05512,-0.0138 -0.120578,-0.0241 -0.06201,-0.0138 -0.16192,-0.0276 -0.09646,-0.0138 -0.282498,-0.0344 -0.08268,-0.0103 -0.127468,-0.0379 -0.04479,-0.031 -0.06546,-0.0689 -0.02067,-0.0413 -0.02412,-0.0827 -0.0034,-0.0448 -0.0034,-0.0758 0,-0.0689 0.0689,-0.10335 0.06546,-0.0379 0.172255,-0.0551 0.103353,-0.0172 0.227376,-0.0172 0.127469,-0.003 0.241157,0 0.117133,0.003 0.206706,0.007 0.09302,0 0.127468,-0.007 0.09302,-0.46509 0.234267,-0.89917 0.144694,-0.43753 0.320394,-0.77515 0.179144,-0.34106 0.389295,-0.54432 0.210151,-0.20671 0.440973,-0.20671 0.148139,0 0.268717,0.0827 0.124023,0.0827 0.210151,0.22049 0.08613,0.1378 0.130913,0.32384 0.04823,0.18259 0.04823,0.3824 0,0.16881 -0.04823,0.35829 -0.04823,0.18604 -0.130913,0.38241 -0.08268,0.19293 -0.196371,0.39274 -0.110243,0.19982 -0.234266,0.39619 0.03101,0.003 0.103353,0.007 0.07235,0 0.165364,0.003 0.09646,0.003 0.206706,0.0103 0.110243,0.003 0.213596,0.007 0.103353,0.003 0.192925,0.007 0.08957,0.003 0.148139,0.007 0.0689,0.003 0.09991,0.0689 0.03101,0.0655 0.03101,0.16536 0,0.12058 -0.0689,0.19638 -0.0689,0.0758 -0.151584,0.0758 h -1.322917 q -0.09991,0.1378 -0.20326,0.27216 -0.09991,0.13091 -0.186036,0.23771 -0.01378,0.2136 -0.02411,0.4203 -0.0034,0.0896 -0.0069,0.18604 -0.0034,0.093 -0.0069,0.18603 -0.0034,0.093 -0.0069,0.17915 0,0.0861 0,0.15847 0,0.18604 0.03445,0.31351 0.03445,0.12746 0.09991,0.21015 0.06546,0.0792 0.158474,0.11713 0.09646,0.0344 0.213596,0.0344 0.07235,0 0.179145,-0.0344 0.110243,-0.0344 0.237712,-0.093 0.130913,-0.062 0.272162,-0.14469 0.144694,-0.0827 0.282498,-0.17915 0.141249,-0.0999 0.268718,-0.2067 0.127468,-0.11024 0.230821,-0.22393 z m -1.102431,-4.36149 q 0,-0.0379 -0.0069,-0.0827 -0.0034,-0.0482 -0.02067,-0.0896 -0.01723,-0.0413 -0.05512,-0.0689 -0.03445,-0.0276 -0.09991,-0.0276 -0.08957,0 -0.18259,0.15848 -0.08957,0.15847 -0.1757,0.40652 -0.08268,0.2446 -0.158474,0.54088 -0.07235,0.29628 -0.134359,0.57533 0.05168,0.007 0.103353,0.0138 0.05168,0.003 0.106798,0.0103 0.103353,-0.1757 0.213596,-0.37897 0.113688,-0.2067 0.203261,-0.40307 0.08957,-0.19982 0.148139,-0.37207 0.05857,-0.17226 0.05857,-0.2825 z" />
      <path
         id="path932"
         style="font-style:normal;font-variant:normal;font-weight:normal;font-stretch:normal;font-size:7.05555534px;font-family:Pacifico;-inkscape-font-specification:Pacifico;fill:#3f3529;fill-opacity:1;stroke-width:0.26458332px"
         d="m 67.655356,264.53405 q -0.124023,0.11369 -0.310058,0.2446 -0.18259,0.12747 -0.396186,0.23771 -0.213596,0.1068 -0.437527,0.17915 -0.220486,0.0723 -0.420302,0.0723 -0.179145,0 -0.303168,-0.0482 -0.120579,-0.0517 -0.196371,-0.14125 -0.07579,-0.0896 -0.110243,-0.21704 -0.03101,-0.13091 -0.03101,-0.28594 0,-0.21704 0.04823,-0.50299 0.05168,-0.28938 0.124023,-0.596 0.07235,-0.31006 0.151584,-0.61667 0.08268,-0.30661 0.144694,-0.56499 0.02412,-0.0896 0.09646,-0.15159 0.07235,-0.0655 0.16192,-0.10335 0.09302,-0.0413 0.18948,-0.0586 0.09991,-0.0207 0.179145,-0.0207 0.144694,0 0.19637,0.0551 0.05168,0.0517 0.05168,0.14125 0,0.0758 -0.03445,0.22049 -0.03445,0.14125 -0.08613,0.32384 -0.05168,0.17914 -0.110243,0.38929 -0.05857,0.20671 -0.110243,0.41686 -0.05168,0.2067 -0.08613,0.40652 -0.03445,0.19637 -0.03445,0.35485 0,0.15502 0.03445,0.24804 0.03445,0.0896 0.141249,0.0896 0.124023,0 0.275607,-0.0861 0.151585,-0.0861 0.306614,-0.20671 0.155029,-0.12402 0.303168,-0.25494 0.148139,-0.13091 0.261827,-0.22393 z m -1.539957,-3.54156 q 0,-0.0792 0.03445,-0.17915 0.03445,-0.0999 0.110243,-0.18603 0.07924,-0.0896 0.206706,-0.14814 0.130913,-0.062 0.323838,-0.062 0.120579,0 0.227377,0.0276 0.106798,0.0276 0.186035,0.0861 0.07924,0.0551 0.124023,0.14814 0.04823,0.093 0.04823,0.22048 0,0.11714 -0.0379,0.22738 -0.0379,0.11024 -0.120579,0.19637 -0.08268,0.0861 -0.21015,0.14125 -0.124024,0.0517 -0.299724,0.0517 -0.303168,0 -0.447862,-0.14124 -0.144694,-0.1447 -0.144694,-0.38241 z" />
      <path
         id="path934"
         style="font-style:normal;font-variant:normal;font-weight:normal;font-stretch:normal;font-size:7.05555534px;font-family:Pacifico;-inkscape-font-specification:Pacifico;fill:#3f3529;fill-opacity:1;stroke-width:0.26458332px"
         d="m 67.297066,263.94494 q 0.192926,-0.16537 0.313504,-0.27561 0.120578,-0.11024 0.206706,-0.19982 0.08613,-0.093 0.155029,-0.18603 0.07235,-0.093 0.16881,-0.22049 0.09646,-0.12747 0.234266,-0.31006 0.137804,-0.18603 0.35829,-0.46164 0.04479,-0.062 0.09991,-0.12058 0.05512,-0.0586 0.120578,-0.10335 0.0689,-0.0482 0.148139,-0.0758 0.08268,-0.031 0.18259,-0.031 0.165365,0 0.254937,0.0379 0.08957,0.0344 0.130914,0.0861 0.04134,0.0517 0.04823,0.11025 0.0069,0.0551 0.0069,0.0965 0,0.0827 -0.06546,0.18259 -0.06546,0.0999 -0.144694,0.19293 -0.07924,0.093 -0.151584,0.17225 -0.0689,0.0758 -0.07924,0.11369 0,0.1068 0.01378,0.19637 0.01723,0.0861 0.04134,0.17225 0.02756,0.0827 0.05512,0.17915 0.02756,0.093 0.05168,0.21704 0.02756,0.12402 0.04134,0.28594 0.01723,0.16192 0.01723,0.38241 0.124023,-0.0827 0.265272,-0.14814 0.144694,-0.0689 0.299723,-0.14125 0.155029,-0.0723 0.316949,-0.15847 0.165364,-0.0896 0.330729,-0.2136 l 0.0034,0.7717 q -0.213596,0.16537 -0.496094,0.31006 -0.279052,0.14469 -0.589111,0.25494 -0.306613,0.11024 -0.623562,0.1757 -0.313504,0.062 -0.596002,0.062 -0.20326,0 -0.37896,-0.0379 -0.1757,-0.0379 -0.310059,-0.11713 -0.130913,-0.0827 -0.213596,-0.2136 -0.08268,-0.13091 -0.09991,-0.31695 -0.04823,0.0103 -0.09646,0.0138 -0.04479,0.003 -0.08957,0.003 -0.05512,0 -0.103352,-0.003 -0.04823,-0.003 -0.08268,-0.0241 -0.03445,-0.0241 -0.05512,-0.0724 -0.02067,-0.0517 -0.02067,-0.14469 0,-0.0827 0.04134,-0.15159 0.04134,-0.0723 0.09646,-0.12746 0.05512,-0.0551 0.110243,-0.0965 0.05512,-0.0413 0.08268,-0.0654 z m 0.440973,0.44097 q 0.04134,0 0.08957,0.0517 0.05168,0.0517 0.117133,0.11369 0.06546,0.062 0.151584,0.11369 0.08613,0.0517 0.196371,0.0517 0.134359,0 0.220486,-0.0448 0.08957,-0.0448 0.141249,-0.11713 0.05168,-0.0758 0.07235,-0.17226 0.02067,-0.0999 0.02067,-0.2067 0,-0.093 -0.01378,-0.18948 -0.01033,-0.0965 -0.03101,-0.18259 -0.01722,-0.0896 -0.04134,-0.16537 -0.02067,-0.0792 -0.0379,-0.13436 z" />
      <path
         id="path936"
         style="font-style:normal;font-variant:normal;font-weight:normal;font-stretch:normal;font-size:7.05555534px;font-family:Pacifico;-inkscape-font-specification:Pacifico;fill:#3f3529;fill-opacity:1;stroke-width:0.26458332px"
         d="m 73.987442,264.4238 q -0.07924,0.11025 -0.213596,0.25839 -0.130914,0.14814 -0.296278,0.28249 -0.165365,0.13436 -0.354845,0.22738 -0.189481,0.093 -0.378961,0.093 -0.227376,0 -0.37896,-0.1447 -0.151584,-0.14813 -0.261827,-0.42719 -0.08268,0.0965 -0.203261,0.19637 -0.120578,0.0999 -0.265272,0.18259 -0.141249,0.0792 -0.296279,0.13092 -0.155029,0.0517 -0.310058,0.0517 -0.165365,0 -0.323839,-0.0654 -0.15503,-0.0689 -0.275608,-0.19293 -0.120578,-0.12747 -0.192925,-0.30661 -0.07235,-0.18259 -0.07235,-0.40997 0,-0.25838 0.07235,-0.53054 0.07235,-0.27217 0.199815,-0.53055 0.127469,-0.26183 0.299724,-0.49265 0.1757,-0.23082 0.382405,-0.40307 0.206706,-0.17226 0.434082,-0.27217 0.230822,-0.10335 0.468533,-0.10335 0.07924,0 0.124024,0.031 0.04479,0.031 0.07235,0.0723 0.03101,0.0379 0.05857,0.0758 0.02756,0.0379 0.0689,0.0551 0.04134,0.0172 0.08268,0.0241 0.04479,0.003 0.08957,0.003 0.0379,0 0.07579,0 0.04134,-0.003 0.07924,-0.003 0.05168,0 0.09646,0.0103 0.04479,0.0103 0.07924,0.0448 0.03445,0.0344 0.05168,0.0965 0.02067,0.062 0.02067,0.16881 0,0.16536 -0.03445,0.36862 -0.03445,0.19982 -0.07579,0.41341 -0.04134,0.21015 -0.07579,0.42375 -0.03445,0.21015 -0.03445,0.39963 0,0.16192 0.02756,0.25494 0.03101,0.0896 0.127468,0.0896 0.07235,0 0.151584,-0.0344 0.07924,-0.0379 0.158475,-0.0965 0.08268,-0.0586 0.161919,-0.13092 0.08268,-0.0758 0.15503,-0.15503 0.168809,-0.18603 0.341064,-0.4203 z m -2.942112,-0.27216 q 0,0.0861 0.01034,0.16881 0.01378,0.0792 0.04479,0.1447 0.03101,0.062 0.08268,0.10335 0.05168,0.0379 0.130914,0.0379 0.127468,0 0.230821,-0.11024 0.103353,-0.11024 0.179145,-0.26527 0.07579,-0.15503 0.120578,-0.32039 0.04823,-0.16537 0.06201,-0.27561 l 0.210151,-1.01286 q -0.141249,0 -0.275608,0.0723 -0.134358,0.0689 -0.254937,0.18948 -0.117133,0.12058 -0.217041,0.2756 -0.09991,0.15503 -0.172255,0.32729 -0.07235,0.16881 -0.113688,0.34106 -0.0379,0.17226 -0.0379,0.32384 z" />
      <path
         id="path938"
         style="font-style:normal;font-variant:normal;font-weight:normal;font-stretch:normal;font-size:7.05555534px;font-family:Pacifico;-inkscape-font-specification:Pacifico;fill:#3f3529;fill-opacity:1;stroke-width:0.26458332px"
         d="m 73.58092,264.54783 q 0,-0.22738 0.02756,-0.52366 0.02756,-0.29972 0.0689,-0.60633 0.04134,-0.31006 0.09302,-0.596 0.05168,-0.28595 0.09991,-0.48921 0.0379,-0.15847 0.144694,-0.26527 0.110243,-0.1068 0.296278,-0.1068 0.186035,0 0.258382,0.11369 0.07235,0.11369 0.07235,0.30317 0,0.0517 -0.01033,0.14125 -0.01033,0.0861 -0.02756,0.19292 -0.01378,0.10335 -0.031,0.21704 -0.01723,0.11025 -0.03445,0.20671 -0.01378,0.093 -0.02412,0.16536 -0.01033,0.0689 -0.01033,0.093 h 0.0689 q 0.02067,-0.0379 0.06546,-0.12058 0.04479,-0.0861 0.103353,-0.19637 0.05857,-0.11024 0.124024,-0.23082 0.0689,-0.12402 0.127468,-0.23427 0.05857,-0.11368 0.106798,-0.19981 0.04823,-0.0861 0.07235,-0.12747 0.110243,-0.18603 0.251492,-0.25494 0.141249,-0.0689 0.313504,-0.0689 0.172255,0 0.272162,0.1447 0.103353,0.14469 0.103353,0.39963 0,0.0379 -0.01723,0.12746 -0.01378,0.0896 -0.0379,0.2136 -0.02412,0.12402 -0.05512,0.27216 -0.02756,0.14814 -0.05168,0.30317 -0.02412,0.15503 -0.04134,0.30662 -0.01378,0.15158 -0.01378,0.27905 0,0.21359 0.05168,0.3514 0.05512,0.1378 0.168809,0.1378 0.05168,0 0.117134,-0.031 0.0689,-0.031 0.144694,-0.0792 0.07924,-0.0517 0.158474,-0.11713 0.08268,-0.0655 0.161919,-0.13436 0.18259,-0.16192 0.382406,-0.36518 l 0.05857,0.7717 -0.172255,0.13091 q -0.141249,0.1068 -0.289388,0.2136 -0.144694,0.1068 -0.303169,0.19292 -0.158474,0.0827 -0.330729,0.13781 -0.172254,0.0517 -0.361735,0.0517 -0.18948,0 -0.320394,-0.27216 -0.127468,-0.27561 -0.127468,-0.80271 0,-0.2067 0.02756,-0.44441 0.02756,-0.24116 0.0689,-0.51677 h -0.05512 l -0.902615,1.79145 q -0.0689,0.14125 -0.155029,0.19293 -0.08613,0.0517 -0.199816,0.0517 -0.141249,0 -0.227376,-0.0586 -0.08613,-0.062 -0.134359,-0.16192 -0.04479,-0.10336 -0.06201,-0.23082 -0.01378,-0.13092 -0.01378,-0.26872 z" />
      <path
         id="path940"
         style="font-style:normal;font-variant:normal;font-weight:normal;font-stretch:normal;font-size:7.05555534px;font-family:Pacifico;-inkscape-font-specification:Pacifico;fill:#3f3529;fill-opacity:1;stroke-width:0.26458332px"
         d="m 76.667725,263.94494 q 0.192926,-0.16537 0.313504,-0.27561 0.120578,-0.11024 0.206706,-0.19982 0.08613,-0.093 0.155029,-0.18603 0.07235,-0.093 0.16881,-0.22049 0.09646,-0.12747 0.234266,-0.31006 0.137804,-0.18603 0.35829,-0.46164 0.04479,-0.062 0.09991,-0.12058 0.05512,-0.0586 0.120578,-0.10335 0.0689,-0.0482 0.148139,-0.0758 0.08268,-0.031 0.18259,-0.031 0.165365,0 0.254937,0.0379 0.08957,0.0344 0.130914,0.0861 0.04134,0.0517 0.04823,0.11025 0.0069,0.0551 0.0069,0.0965 0,0.0827 -0.06546,0.18259 -0.06546,0.0999 -0.144694,0.19293 -0.07924,0.093 -0.151585,0.17225 -0.0689,0.0758 -0.07924,0.11369 0,0.1068 0.01378,0.19637 0.01722,0.0861 0.04134,0.17225 0.02756,0.0827 0.05512,0.17915 0.02756,0.093 0.05168,0.21704 0.02756,0.12402 0.04134,0.28594 0.01722,0.16192 0.01722,0.38241 0.124024,-0.0827 0.265273,-0.14814 0.144694,-0.0689 0.299723,-0.14125 0.155029,-0.0723 0.316949,-0.15847 0.165364,-0.0896 0.330729,-0.2136 l 0.0034,0.7717 q -0.213596,0.16537 -0.496094,0.31006 -0.279052,0.14469 -0.589111,0.25494 -0.306613,0.11024 -0.623562,0.1757 -0.313504,0.062 -0.596002,0.062 -0.20326,0 -0.37896,-0.0379 -0.1757,-0.0379 -0.310059,-0.11713 -0.130913,-0.0827 -0.213596,-0.2136 -0.08268,-0.13091 -0.09991,-0.31695 -0.04823,0.0103 -0.09646,0.0138 -0.04479,0.003 -0.08957,0.003 -0.05512,0 -0.103353,-0.003 -0.04823,-0.003 -0.08268,-0.0241 -0.03445,-0.0241 -0.05512,-0.0724 -0.02067,-0.0517 -0.02067,-0.14469 0,-0.0827 0.04134,-0.15159 0.04134,-0.0723 0.09646,-0.12746 0.05512,-0.0551 0.110243,-0.0965 0.05512,-0.0413 0.08268,-0.0654 z m 0.440972,0.44097 q 0.04134,0 0.08957,0.0517 0.05168,0.0517 0.117133,0.11369 0.06546,0.062 0.151584,0.11369 0.08613,0.0517 0.196371,0.0517 0.134359,0 0.220486,-0.0448 0.08957,-0.0448 0.141249,-0.11713 0.05168,-0.0758 0.07235,-0.17226 0.02067,-0.0999 0.02067,-0.2067 0,-0.093 -0.01378,-0.18948 -0.01033,-0.0965 -0.03101,-0.18259 -0.01722,-0.0896 -0.04134,-0.16537 -0.02067,-0.0792 -0.0379,-0.13436 z" />
    </g>
  </g>
</svg>
